<?xml version="1.0" encoding="UTF-8" standalone="no"?>
<!DOCTYPE svg PUBLIC "-//W3C//DTD SVG 1.1//EN"
 "http://www.w3.org/Graphics/SVG/1.1/DTD/svg11.dtd">
<!-- Generated by graphviz version 2.40.1 (20161225.0304)
 -->
<!-- Title: dependency&#45;cruiser output Pages: 1 -->
<svg width="866pt" height="1324pt"
 viewBox="0.00 0.00 866.00 1323.86" xmlns="http://www.w3.org/2000/svg" xmlns:xlink="http://www.w3.org/1999/xlink">
<g id="graph0" class="graph" transform="scale(1 1) rotate(0) translate(4 1319.8581)">
<title>dependency&#45;cruiser output</title>
<polygon fill="#ffffff" stroke="transparent" points="-4,4 -4,-1319.8581 862,-1319.8581 862,4 -4,4"/>
<g id="clust1" class="cluster">
<title>cluster_config</title>
<path fill="#ffffff" stroke="#000000" stroke-width="2" d="M363.5,-51.8581C363.5,-51.8581 409.5,-51.8581 409.5,-51.8581 415.5,-51.8581 421.5,-57.8581 421.5,-63.8581 421.5,-63.8581 421.5,-91.8581 421.5,-91.8581 421.5,-97.8581 415.5,-103.8581 409.5,-103.8581 409.5,-103.8581 363.5,-103.8581 363.5,-103.8581 357.5,-103.8581 351.5,-97.8581 351.5,-91.8581 351.5,-91.8581 351.5,-63.8581 351.5,-63.8581 351.5,-57.8581 357.5,-51.8581 363.5,-51.8581"/>
<text text-anchor="middle" x="386.5" y="-92.6581" font-family="Helvetica,sans-Serif" font-weight="bold" font-size="9.00" fill="#000000">config</text>
</g>
<g id="clust2" class="cluster">
<title>cluster_src</title>
<path fill="#ffffff" stroke="#000000" stroke-width="2" d="M20,-111.8581C20,-111.8581 838,-111.8581 838,-111.8581 844,-111.8581 850,-117.8581 850,-123.8581 850,-123.8581 850,-1295.8581 850,-1295.8581 850,-1301.8581 844,-1307.8581 838,-1307.8581 838,-1307.8581 20,-1307.8581 20,-1307.8581 14,-1307.8581 8,-1301.8581 8,-1295.8581 8,-1295.8581 8,-123.8581 8,-123.8581 8,-117.8581 14,-111.8581 20,-111.8581"/>
<text text-anchor="middle" x="429" y="-1296.6581" font-family="Helvetica,sans-Serif" font-weight="bold" font-size="9.00" fill="#000000">src</text>
</g>
<g id="clust3" class="cluster">
<title>cluster_src/client</title>
<path fill="#ffffff" stroke="#000000" stroke-width="2" d="M128,-1037.8581C128,-1037.8581 174,-1037.8581 174,-1037.8581 180,-1037.8581 186,-1043.8581 186,-1049.8581 186,-1049.8581 186,-1077.8581 186,-1077.8581 186,-1083.8581 180,-1089.8581 174,-1089.8581 174,-1089.8581 128,-1089.8581 128,-1089.8581 122,-1089.8581 116,-1083.8581 116,-1077.8581 116,-1077.8581 116,-1049.8581 116,-1049.8581 116,-1043.8581 122,-1037.8581 128,-1037.8581"/>
<text text-anchor="middle" x="151" y="-1078.6581" font-family="Helvetica,sans-Serif" font-weight="bold" font-size="9.00" fill="#000000">client</text>
</g>
<g id="clust4" class="cluster">
<title>cluster_src/server</title>
<path fill="#ffffff" stroke="#000000" stroke-width="2" d="M28,-145.8581C28,-145.8581 319,-145.8581 319,-145.8581 325,-145.8581 331,-151.8581 331,-157.8581 331,-157.8581 331,-339.8581 331,-339.8581 331,-345.8581 325,-351.8581 319,-351.8581 319,-351.8581 28,-351.8581 28,-351.8581 22,-351.8581 16,-345.8581 16,-339.8581 16,-339.8581 16,-157.8581 16,-157.8581 16,-151.8581 22,-145.8581 28,-145.8581"/>
<text text-anchor="middle" x="173.5" y="-340.6581" font-family="Helvetica,sans-Serif" font-weight="bold" font-size="9.00" fill="#000000">server</text>
</g>
<g id="clust5" class="cluster">
<title>cluster_src/server/components</title>
<path fill="#ffffff" stroke="#000000" stroke-width="2" d="M255,-247.8581C255,-247.8581 302,-247.8581 302,-247.8581 308,-247.8581 314,-253.8581 314,-259.8581 314,-259.8581 314,-287.8581 314,-287.8581 314,-293.8581 308,-299.8581 302,-299.8581 302,-299.8581 255,-299.8581 255,-299.8581 249,-299.8581 243,-293.8581 243,-287.8581 243,-287.8581 243,-259.8581 243,-259.8581 243,-253.8581 249,-247.8581 255,-247.8581"/>
<text text-anchor="middle" x="278.5" y="-288.6581" font-family="Helvetica,sans-Serif" font-weight="bold" font-size="9.00" fill="#000000">components</text>
</g>
<g id="clust6" class="cluster">
<title>cluster_src/server/lib</title>
<path fill="#ffffff" stroke="#000000" stroke-width="2" d="M246,-153.8581C246,-153.8581 311,-153.8581 311,-153.8581 317,-153.8581 323,-159.8581 323,-165.8581 323,-165.8581 323,-227.8581 323,-227.8581 323,-233.8581 317,-239.8581 311,-239.8581 311,-239.8581 246,-239.8581 246,-239.8581 240,-239.8581 234,-233.8581 234,-227.8581 234,-227.8581 234,-165.8581 234,-165.8581 234,-159.8581 240,-153.8581 246,-153.8581"/>
<text text-anchor="middle" x="278.5" y="-228.6581" font-family="Helvetica,sans-Serif" font-weight="bold" font-size="9.00" fill="#000000">lib</text>
</g>
<g id="clust7" class="cluster">
<title>cluster_src/server/lib/i18n</title>
<path fill="#ffffff" stroke="#000000" stroke-width="2" d="M254,-161.8581C254,-161.8581 303,-161.8581 303,-161.8581 309,-161.8581 315,-167.8581 315,-173.8581 315,-173.8581 315,-201.8581 315,-201.8581 315,-207.8581 309,-213.8581 303,-213.8581 303,-213.8581 254,-213.8581 254,-213.8581 248,-213.8581 242,-207.8581 242,-201.8581 242,-201.8581 242,-173.8581 242,-173.8581 242,-167.8581 248,-161.8581 254,-161.8581"/>
<text text-anchor="middle" x="278.5" y="-202.6581" font-family="Helvetica,sans-Serif" font-weight="bold" font-size="9.00" fill="#000000">i18n</text>
</g>
<g id="clust8" class="cluster">
<title>cluster_src/server/middleware</title>
<path fill="#ffffff" stroke="#000000" stroke-width="2" d="M100.5,-153.8581C100.5,-153.8581 201.5,-153.8581 201.5,-153.8581 207.5,-153.8581 213.5,-159.8581 213.5,-165.8581 213.5,-165.8581 213.5,-313.8581 213.5,-313.8581 213.5,-319.8581 207.5,-325.8581 201.5,-325.8581 201.5,-325.8581 100.5,-325.8581 100.5,-325.8581 94.5,-325.8581 88.5,-319.8581 88.5,-313.8581 88.5,-313.8581 88.5,-165.8581 88.5,-165.8581 88.5,-159.8581 94.5,-153.8581 100.5,-153.8581"/>
<text text-anchor="middle" x="151" y="-314.6581" font-family="Helvetica,sans-Serif" font-weight="bold" font-size="9.00" fill="#000000">middleware</text>
</g>
<g id="clust9" class="cluster">
<title>cluster_src/shared</title>
<path fill="#ffffff" stroke="#000000" stroke-width="2" d="M233.5,-359.8581C233.5,-359.8581 830,-359.8581 830,-359.8581 836,-359.8581 842,-365.8581 842,-371.8581 842,-371.8581 842,-1269.8581 842,-1269.8581 842,-1275.8581 836,-1281.8581 830,-1281.8581 830,-1281.8581 233.5,-1281.8581 233.5,-1281.8581 227.5,-1281.8581 221.5,-1275.8581 221.5,-1269.8581 221.5,-1269.8581 221.5,-371.8581 221.5,-371.8581 221.5,-365.8581 227.5,-359.8581 233.5,-359.8581"/>
<text text-anchor="middle" x="531.75" y="-1270.6581" font-family="Helvetica,sans-Serif" font-weight="bold" font-size="9.00" fill="#000000">shared</text>
</g>
<g id="clust10" class="cluster">
<title>cluster_src/shared/assets</title>
<path fill="#ffffff" stroke="#000000" stroke-width="2" d="M478,-423.8581C478,-423.8581 534,-423.8581 534,-423.8581 540,-423.8581 546,-429.8581 546,-435.8581 546,-435.8581 546,-493.8581 546,-493.8581 546,-499.8581 540,-505.8581 534,-505.8581 534,-505.8581 478,-505.8581 478,-505.8581 472,-505.8581 466,-499.8581 466,-493.8581 466,-493.8581 466,-435.8581 466,-435.8581 466,-429.8581 472,-423.8581 478,-423.8581"/>
<text text-anchor="middle" x="506" y="-494.6581" font-family="Helvetica,sans-Serif" font-weight="bold" font-size="9.00" fill="#000000">assets</text>
</g>
<g id="clust11" class="cluster">
<title>cluster_src/shared/components</title>
<path fill="#ffffff" stroke="#000000" stroke-width="2" d="M582,-787.8581C582,-787.8581 822,-787.8581 822,-787.8581 828,-787.8581 834,-793.8581 834,-799.8581 834,-799.8581 834,-891.8581 834,-891.8581 834,-897.8581 828,-903.8581 822,-903.8581 822,-903.8581 582,-903.8581 582,-903.8581 576,-903.8581 570,-897.8581 570,-891.8581 570,-891.8581 570,-799.8581 570,-799.8581 570,-793.8581 576,-787.8581 582,-787.8581"/>
<text text-anchor="middle" x="702" y="-892.6581" font-family="Helvetica,sans-Serif" font-weight="bold" font-size="9.00" fill="#000000">components</text>
</g>
<g id="clust12" class="cluster">
<title>cluster_src/shared/components/Features</title>
<path fill="#ffffff" stroke="#000000" stroke-width="2" d="M590,-795.8581C590,-795.8581 814,-795.8581 814,-795.8581 820,-795.8581 826,-801.8581 826,-807.8581 826,-807.8581 826,-865.8581 826,-865.8581 826,-871.8581 820,-877.8581 814,-877.8581 814,-877.8581 590,-877.8581 590,-877.8581 584,-877.8581 578,-871.8581 578,-865.8581 578,-865.8581 578,-807.8581 578,-807.8581 578,-801.8581 584,-795.8581 590,-795.8581"/>
<text text-anchor="middle" x="702" y="-866.6581" font-family="Helvetica,sans-Serif" font-weight="bold" font-size="9.00" fill="#000000">Features</text>
</g>
<g id="clust13" class="cluster">
<title>cluster_src/shared/i18n</title>
<path fill="#ffffff" stroke="#000000" stroke-width="2" d="M471.5,-1075.8581C471.5,-1075.8581 696.5,-1075.8581 696.5,-1075.8581 702.5,-1075.8581 708.5,-1081.8581 708.5,-1087.8581 708.5,-1087.8581 708.5,-1243.8581 708.5,-1243.8581 708.5,-1249.8581 702.5,-1255.8581 696.5,-1255.8581 696.5,-1255.8581 471.5,-1255.8581 471.5,-1255.8581 465.5,-1255.8581 459.5,-1249.8581 459.5,-1243.8581 459.5,-1243.8581 459.5,-1087.8581 459.5,-1087.8581 459.5,-1081.8581 465.5,-1075.8581 471.5,-1075.8581"/>
<text text-anchor="middle" x="584" y="-1244.6581" font-family="Helvetica,sans-Serif" font-weight="bold" font-size="9.00" fill="#000000">i18n</text>
</g>
<g id="clust14" class="cluster">
<title>cluster_src/shared/i18n/locales</title>
<path fill="#ffffff" stroke="#000000" stroke-width="2" d="M601.5,-1083.8581C601.5,-1083.8581 688.5,-1083.8581 688.5,-1083.8581 694.5,-1083.8581 700.5,-1089.8581 700.5,-1095.8581 700.5,-1095.8581 700.5,-1217.8581 700.5,-1217.8581 700.5,-1223.8581 694.5,-1229.8581 688.5,-1229.8581 688.5,-1229.8581 601.5,-1229.8581 601.5,-1229.8581 595.5,-1229.8581 589.5,-1223.8581 589.5,-1217.8581 589.5,-1217.8581 589.5,-1095.8581 589.5,-1095.8581 589.5,-1089.8581 595.5,-1083.8581 601.5,-1083.8581"/>
<text text-anchor="middle" x="645" y="-1218.6581" font-family="Helvetica,sans-Serif" font-weight="bold" font-size="9.00" fill="#000000">locales</text>
</g>
<g id="clust15" class="cluster">
<title>cluster_src/shared/i18n/locales/de_DE</title>
<path fill="#ffffff" stroke="#000000" stroke-width="2" d="M609.5,-1151.8581C609.5,-1151.8581 680.5,-1151.8581 680.5,-1151.8581 686.5,-1151.8581 692.5,-1157.8581 692.5,-1163.8581 692.5,-1163.8581 692.5,-1191.8581 692.5,-1191.8581 692.5,-1197.8581 686.5,-1203.8581 680.5,-1203.8581 680.5,-1203.8581 609.5,-1203.8581 609.5,-1203.8581 603.5,-1203.8581 597.5,-1197.8581 597.5,-1191.8581 597.5,-1191.8581 597.5,-1163.8581 597.5,-1163.8581 597.5,-1157.8581 603.5,-1151.8581 609.5,-1151.8581"/>
<text text-anchor="middle" x="645" y="-1192.6581" font-family="Helvetica,sans-Serif" font-weight="bold" font-size="9.00" fill="#000000">de_DE</text>
</g>
<g id="clust16" class="cluster">
<title>cluster_src/shared/i18n/locales/en_US</title>
<path fill="#ffffff" stroke="#000000" stroke-width="2" d="M609.5,-1091.8581C609.5,-1091.8581 680.5,-1091.8581 680.5,-1091.8581 686.5,-1091.8581 692.5,-1097.8581 692.5,-1103.8581 692.5,-1103.8581 692.5,-1131.8581 692.5,-1131.8581 692.5,-1137.8581 686.5,-1143.8581 680.5,-1143.8581 680.5,-1143.8581 609.5,-1143.8581 609.5,-1143.8581 603.5,-1143.8581 597.5,-1137.8581 597.5,-1131.8581 597.5,-1131.8581 597.5,-1103.8581 597.5,-1103.8581 597.5,-1097.8581 603.5,-1091.8581 609.5,-1091.8581"/>
<text text-anchor="middle" x="645" y="-1132.6581" font-family="Helvetica,sans-Serif" font-weight="bold" font-size="9.00" fill="#000000">en_US</text>
</g>
<g id="clust17" class="cluster">
<title>cluster_src/shared/pages</title>
<path fill="#ffffff" stroke="#000000" stroke-width="2" d="M446,-513.8581C446,-513.8581 696.5,-513.8581 696.5,-513.8581 702.5,-513.8581 708.5,-519.8581 708.5,-525.8581 708.5,-525.8581 708.5,-767.8581 708.5,-767.8581 708.5,-773.8581 702.5,-779.8581 696.5,-779.8581 696.5,-779.8581 446,-779.8581 446,-779.8581 440,-779.8581 434,-773.8581 434,-767.8581 434,-767.8581 434,-525.8581 434,-525.8581 434,-519.8581 440,-513.8581 446,-513.8581"/>
<text text-anchor="middle" x="571.25" y="-768.6581" font-family="Helvetica,sans-Serif" font-weight="bold" font-size="9.00" fill="#000000">pages</text>
</g>
<g id="clust18" class="cluster">
<title>cluster_src/shared/pages/Home</title>
<path fill="#ffffff" stroke="#000000" stroke-width="2" d="M483,-701.8581C483,-701.8581 529,-701.8581 529,-701.8581 535,-701.8581 541,-707.8581 541,-713.8581 541,-713.8581 541,-741.8581 541,-741.8581 541,-747.8581 535,-753.8581 529,-753.8581 529,-753.8581 483,-753.8581 483,-753.8581 477,-753.8581 471,-747.8581 471,-741.8581 471,-741.8581 471,-713.8581 471,-713.8581 471,-707.8581 477,-701.8581 483,-701.8581"/>
<text text-anchor="middle" x="506" y="-742.6581" font-family="Helvetica,sans-Serif" font-weight="bold" font-size="9.00" fill="#000000">Home</text>
</g>
<g id="clust19" class="cluster">
<title>cluster_src/shared/pages/Page&#45;1</title>
<path fill="#ffffff" stroke="#000000" stroke-width="2" d="M454,-581.8581C454,-581.8581 688.5,-581.8581 688.5,-581.8581 694.5,-581.8581 700.5,-587.8581 700.5,-593.8581 700.5,-593.8581 700.5,-681.8581 700.5,-681.8581 700.5,-687.8581 694.5,-693.8581 688.5,-693.8581 688.5,-693.8581 454,-693.8581 454,-693.8581 448,-693.8581 442,-687.8581 442,-681.8581 442,-681.8581 442,-593.8581 442,-593.8581 442,-587.8581 448,-581.8581 454,-581.8581"/>
<text text-anchor="middle" x="571.25" y="-682.6581" font-family="Helvetica,sans-Serif" font-weight="bold" font-size="9.00" fill="#000000">Page&#45;1</text>
</g>
<g id="clust20" class="cluster">
<title>cluster_src/shared/pages/Page&#45;2</title>
<path fill="#ffffff" stroke="#000000" stroke-width="2" d="M483,-521.8581C483,-521.8581 529,-521.8581 529,-521.8581 535,-521.8581 541,-527.8581 541,-533.8581 541,-533.8581 541,-561.8581 541,-561.8581 541,-567.8581 535,-573.8581 529,-573.8581 529,-573.8581 483,-573.8581 483,-573.8581 477,-573.8581 471,-567.8581 471,-561.8581 471,-561.8581 471,-533.8581 471,-533.8581 471,-527.8581 477,-521.8581 483,-521.8581"/>
<text text-anchor="middle" x="506" y="-562.6581" font-family="Helvetica,sans-Serif" font-weight="bold" font-size="9.00" fill="#000000">Page&#45;2</text>
</g>
<g id="clust21" class="cluster">
<title>cluster_src/shared/store</title>
<path fill="#ffffff" stroke="#000000" stroke-width="2" d="M255.5,-911.8581C255.5,-911.8581 798.5,-911.8581 798.5,-911.8581 804.5,-911.8581 810.5,-917.8581 810.5,-923.8581 810.5,-923.8581 810.5,-1055.8581 810.5,-1055.8581 810.5,-1061.8581 804.5,-1067.8581 798.5,-1067.8581 798.5,-1067.8581 255.5,-1067.8581 255.5,-1067.8581 249.5,-1067.8581 243.5,-1061.8581 243.5,-1055.8581 243.5,-1055.8581 243.5,-923.8581 243.5,-923.8581 243.5,-917.8581 249.5,-911.8581 255.5,-911.8581"/>
<text text-anchor="middle" x="527" y="-1056.6581" font-family="Helvetica,sans-Serif" font-weight="bold" font-size="9.00" fill="#000000">store</text>
</g>
<g id="clust22" class="cluster">
<title>cluster_src/shared/store/app</title>
<path fill="#ffffff" stroke="#000000" stroke-width="2" d="M351,-945.8581C351,-945.8581 790.5,-945.8581 790.5,-945.8581 796.5,-945.8581 802.5,-951.8581 802.5,-957.8581 802.5,-957.8581 802.5,-1029.8581 802.5,-1029.8581 802.5,-1035.8581 796.5,-1041.8581 790.5,-1041.8581 790.5,-1041.8581 351,-1041.8581 351,-1041.8581 345,-1041.8581 339,-1035.8581 339,-1029.8581 339,-1029.8581 339,-957.8581 339,-957.8581 339,-951.8581 345,-945.8581 351,-945.8581"/>
<text text-anchor="middle" x="570.75" y="-1030.6581" font-family="Helvetica,sans-Serif" font-weight="bold" font-size="9.00" fill="#000000">app</text>
</g>
<!-- config/paths.ts -->
<g id="node1" class="node">
<title>config/paths.ts</title>
<g id="a_node1"><a xlink:href="config/paths.ts" xlink:title="paths.ts">
<path fill="#ddfeff" stroke="#000000" d="M407.5,-77.8581C407.5,-77.8581 365.5,-77.8581 365.5,-77.8581 362.5,-77.8581 359.5,-74.8581 359.5,-71.8581 359.5,-71.8581 359.5,-65.8581 359.5,-65.8581 359.5,-62.8581 362.5,-59.8581 365.5,-59.8581 365.5,-59.8581 407.5,-59.8581 407.5,-59.8581 410.5,-59.8581 413.5,-62.8581 413.5,-65.8581 413.5,-65.8581 413.5,-71.8581 413.5,-71.8581 413.5,-74.8581 410.5,-77.8581 407.5,-77.8581"/>
<text text-anchor="middle" x="386.5" y="-66.6581" font-family="Helvetica,sans-Serif" font-size="9.00" fill="#000000">paths.ts</text>
</a>
</g>
</g>
<!-- fs -->
<g id="node2" class="node">
<title>fs</title>
<path fill="#ffffcc" stroke="#c0c0c0" d="M527,-103.8581C527,-103.8581 485,-103.8581 485,-103.8581 482,-103.8581 479,-100.8581 479,-97.8581 479,-97.8581 479,-91.8581 479,-91.8581 479,-88.8581 482,-85.8581 485,-85.8581 485,-85.8581 527,-85.8581 527,-85.8581 530,-85.8581 533,-88.8581 533,-91.8581 533,-91.8581 533,-97.8581 533,-97.8581 533,-100.8581 530,-103.8581 527,-103.8581"/>
<text text-anchor="middle" x="506" y="-92.6581" font-family="Helvetica,sans-Serif" font-size="9.00" fill="#c0c0c0">fs</text>
</g>
<!-- config/paths.ts&#45;&gt;fs -->
<g id="edge1" class="edge">
<title>config/paths.ts&#45;&gt;fs</title>
<path fill="none" stroke="#000000" stroke-dasharray="5,2" stroke-opacity="0.200000" d="M413.6164,-74.7579C431.1871,-78.5808 454.1889,-83.5854 472.8448,-87.6444"/>
<polygon fill="#000000" fill-opacity="0.200000" stroke="#000000" stroke-opacity="0.200000" points="472.6816,-89.758 478.9909,-88.9817 473.5746,-85.654 472.6816,-89.758"/>
</g>
<!-- path -->
<g id="node3" class="node">
<title>path</title>
<path fill="#ffffcc" stroke="#c0c0c0" d="M527,-45.8581C527,-45.8581 485,-45.8581 485,-45.8581 482,-45.8581 479,-42.8581 479,-39.8581 479,-39.8581 479,-33.8581 479,-33.8581 479,-30.8581 482,-27.8581 485,-27.8581 485,-27.8581 527,-27.8581 527,-27.8581 530,-27.8581 533,-30.8581 533,-33.8581 533,-33.8581 533,-39.8581 533,-39.8581 533,-42.8581 530,-45.8581 527,-45.8581"/>
<text text-anchor="middle" x="506" y="-34.6581" font-family="Helvetica,sans-Serif" font-size="9.00" fill="#c0c0c0">path</text>
</g>
<!-- config/paths.ts&#45;&gt;path -->
<g id="edge2" class="edge">
<title>config/paths.ts&#45;&gt;path</title>
<path fill="none" stroke="#000000" stroke-dasharray="5,2" stroke-opacity="0.200000" d="M413.6164,-61.5968C431.1871,-56.8917 454.1889,-50.7322 472.8448,-45.7365"/>
<polygon fill="#000000" fill-opacity="0.200000" stroke="#000000" stroke-opacity="0.200000" points="473.7383,-47.6713 478.9909,-44.0907 472.6519,-43.6142 473.7383,-47.6713"/>
</g>
<!-- src/client/index.tsx -->
<g id="node4" class="node">
<title>src/client/index.tsx</title>
<g id="a_node4"><a xlink:href="src/client/index.tsx" xlink:title="index.tsx">
<path fill="#bbfeff" stroke="#000000" d="M172,-1063.8581C172,-1063.8581 130,-1063.8581 130,-1063.8581 127,-1063.8581 124,-1060.8581 124,-1057.8581 124,-1057.8581 124,-1051.8581 124,-1051.8581 124,-1048.8581 127,-1045.8581 130,-1045.8581 130,-1045.8581 172,-1045.8581 172,-1045.8581 175,-1045.8581 178,-1048.8581 178,-1051.8581 178,-1051.8581 178,-1057.8581 178,-1057.8581 178,-1060.8581 175,-1063.8581 172,-1063.8581"/>
<text text-anchor="middle" x="151" y="-1052.6581" font-family="Helvetica,sans-Serif" font-size="9.00" fill="#000000">index.tsx</text>
</a>
</g>
</g>
<!-- src/shared/App.tsx -->
<g id="node5" class="node">
<title>src/shared/App.tsx</title>
<g id="a_node5"><a xlink:href="src/shared/App.tsx" xlink:title="App.tsx">
<path fill="#bbfeff" stroke="#000000" d="M407.5,-479.8581C407.5,-479.8581 365.5,-479.8581 365.5,-479.8581 362.5,-479.8581 359.5,-476.8581 359.5,-473.8581 359.5,-473.8581 359.5,-467.8581 359.5,-467.8581 359.5,-464.8581 362.5,-461.8581 365.5,-461.8581 365.5,-461.8581 407.5,-461.8581 407.5,-461.8581 410.5,-461.8581 413.5,-464.8581 413.5,-467.8581 413.5,-467.8581 413.5,-473.8581 413.5,-473.8581 413.5,-476.8581 410.5,-479.8581 407.5,-479.8581"/>
<text text-anchor="middle" x="386.5" y="-468.6581" font-family="Helvetica,sans-Serif" font-size="9.00" fill="#000000">App.tsx</text>
</a>
</g>
</g>
<!-- src/client/index.tsx&#45;&gt;src/shared/App.tsx -->
<g id="edge3" class="edge">
<title>src/client/index.tsx&#45;&gt;src/shared/App.tsx</title>
<path fill="none" stroke="#000000" stroke-width="2" stroke-opacity="0.200000" d="M178.19,-1062.0374C223.0393,-1073.1271 309.6956,-1091.1364 331,-1070.8581 337.527,-1064.6455 338.2917,-917.8412 339,-908.8581 352.0856,-742.8963 377.2556,-542.5302 384.5027,-486.2262"/>
<polygon fill="#000000" fill-opacity="0.200000" stroke="#000000" stroke-width="2" stroke-opacity="0.200000" points="386.6098,-486.3056 385.2956,-480.0861 382.4444,-485.7677 386.6098,-486.3056"/>
</g>
<!-- src/shared/i18n/IntlProvider.tsx -->
<g id="node6" class="node">
<title>src/shared/i18n/IntlProvider.tsx</title>
<g id="a_node6"><a xlink:href="src/shared/i18n/IntlProvider.tsx" xlink:title="IntlProvider.tsx">
<path fill="#bbfeff" stroke="#000000" d="M538.5,-1101.8581C538.5,-1101.8581 473.5,-1101.8581 473.5,-1101.8581 470.5,-1101.8581 467.5,-1098.8581 467.5,-1095.8581 467.5,-1095.8581 467.5,-1089.8581 467.5,-1089.8581 467.5,-1086.8581 470.5,-1083.8581 473.5,-1083.8581 473.5,-1083.8581 538.5,-1083.8581 538.5,-1083.8581 541.5,-1083.8581 544.5,-1086.8581 544.5,-1089.8581 544.5,-1089.8581 544.5,-1095.8581 544.5,-1095.8581 544.5,-1098.8581 541.5,-1101.8581 538.5,-1101.8581"/>
<text text-anchor="middle" x="506" y="-1090.6581" font-family="Helvetica,sans-Serif" font-size="9.00" fill="#000000">IntlProvider.tsx</text>
</a>
</g>
</g>
<!-- src/client/index.tsx&#45;&gt;src/shared/i18n/IntlProvider.tsx -->
<g id="edge4" class="edge">
<title>src/client/index.tsx&#45;&gt;src/shared/i18n/IntlProvider.tsx</title>
<path fill="none" stroke="#000000" stroke-width="2" stroke-opacity="0.200000" d="M166.0445,-1063.8642C179.9031,-1071.6206 201.3155,-1082.2683 221.5,-1086.8581 304.4668,-1105.7241 404.5648,-1101.9214 461.1936,-1097.4121"/>
<polygon fill="#000000" fill-opacity="0.200000" stroke="#000000" stroke-width="2" stroke-opacity="0.200000" points="461.4001,-1099.5024 467.2077,-1096.9175 461.0557,-1095.3165 461.4001,-1099.5024"/>
</g>
<!-- src/shared/store/index.ts -->
<g id="node7" class="node">
<title>src/shared/store/index.ts</title>
<g id="a_node7"><a xlink:href="src/shared/store/index.ts" xlink:title="index.ts">
<path fill="#ddfeff" stroke="#000000" d="M299.5,-937.8581C299.5,-937.8581 257.5,-937.8581 257.5,-937.8581 254.5,-937.8581 251.5,-934.8581 251.5,-931.8581 251.5,-931.8581 251.5,-925.8581 251.5,-925.8581 251.5,-922.8581 254.5,-919.8581 257.5,-919.8581 257.5,-919.8581 299.5,-919.8581 299.5,-919.8581 302.5,-919.8581 305.5,-922.8581 305.5,-925.8581 305.5,-925.8581 305.5,-931.8581 305.5,-931.8581 305.5,-934.8581 302.5,-937.8581 299.5,-937.8581"/>
<text text-anchor="middle" x="278.5" y="-926.6581" font-family="Helvetica,sans-Serif" font-size="9.00" fill="#000000">index.ts</text>
</a>
</g>
</g>
<!-- src/client/index.tsx&#45;&gt;src/shared/store/index.ts -->
<g id="edge5" class="edge">
<title>src/client/index.tsx&#45;&gt;src/shared/store/index.ts</title>
<path fill="none" stroke="#000000" stroke-width="2" stroke-opacity="0.200000" d="M160.1695,-1045.7965C182.2083,-1024.017 238.2666,-968.6182 264.5278,-942.666"/>
<polygon fill="#000000" fill-opacity="0.200000" stroke="#000000" stroke-width="2" stroke-opacity="0.200000" points="266.278,-943.8888 269.0696,-938.1776 263.3258,-940.9014 266.278,-943.8888"/>
</g>
<!-- src/shared/store/history.ts -->
<g id="node8" class="node">
<title>src/shared/store/history.ts</title>
<g id="a_node8"><a xlink:href="src/shared/store/history.ts" xlink:title="history.ts">
<path fill="#ddfeff" stroke="#000000" d="M299.5,-1041.8581C299.5,-1041.8581 257.5,-1041.8581 257.5,-1041.8581 254.5,-1041.8581 251.5,-1038.8581 251.5,-1035.8581 251.5,-1035.8581 251.5,-1029.8581 251.5,-1029.8581 251.5,-1026.8581 254.5,-1023.8581 257.5,-1023.8581 257.5,-1023.8581 299.5,-1023.8581 299.5,-1023.8581 302.5,-1023.8581 305.5,-1026.8581 305.5,-1029.8581 305.5,-1029.8581 305.5,-1035.8581 305.5,-1035.8581 305.5,-1038.8581 302.5,-1041.8581 299.5,-1041.8581"/>
<text text-anchor="middle" x="278.5" y="-1030.6581" font-family="Helvetica,sans-Serif" font-size="9.00" fill="#000000">history.ts</text>
</a>
</g>
</g>
<!-- src/client/index.tsx&#45;&gt;src/shared/store/history.ts -->
<g id="edge6" class="edge">
<title>src/client/index.tsx&#45;&gt;src/shared/store/history.ts</title>
<path fill="none" stroke="#000000" stroke-width="2" stroke-opacity="0.200000" d="M178.0395,-1050.1925C197.7327,-1046.7944 224.5159,-1042.173 245.4753,-1038.5565"/>
<polygon fill="#000000" fill-opacity="0.200000" stroke="#000000" stroke-width="2" stroke-opacity="0.200000" points="245.944,-1040.6067 251.4995,-1037.517 245.2298,-1036.4679 245.944,-1040.6067"/>
</g>
<!-- src/shared/App.module.css -->
<g id="node18" class="node">
<title>src/shared/App.module.css</title>
<g id="a_node18"><a xlink:href="src/shared/App.module.css" xlink:title="App.module.css">
<path fill="#ffffcc" stroke="#000000" d="M541,-415.8581C541,-415.8581 471,-415.8581 471,-415.8581 468,-415.8581 465,-412.8581 465,-409.8581 465,-409.8581 465,-403.8581 465,-403.8581 465,-400.8581 468,-397.8581 471,-397.8581 471,-397.8581 541,-397.8581 541,-397.8581 544,-397.8581 547,-400.8581 547,-403.8581 547,-403.8581 547,-409.8581 547,-409.8581 547,-412.8581 544,-415.8581 541,-415.8581"/>
<text text-anchor="middle" x="506" y="-404.6581" font-family="Helvetica,sans-Serif" font-size="9.00" fill="#000000">App.module.css</text>
</a>
</g>
</g>
<!-- src/shared/App.tsx&#45;&gt;src/shared/App.module.css -->
<g id="edge26" class="edge">
<title>src/shared/App.tsx&#45;&gt;src/shared/App.module.css</title>
<path fill="none" stroke="#000000" stroke-width="2" stroke-opacity="0.200000" d="M392.3757,-461.8375C400.3535,-450.3735 415.7324,-430.8743 434,-420.8581 441.6207,-416.6797 450.2955,-413.7341 458.9207,-411.6611"/>
<polygon fill="#000000" fill-opacity="0.200000" stroke="#000000" stroke-width="2" stroke-opacity="0.200000" points="459.4572,-413.6935 464.8705,-410.3608 458.5605,-409.5903 459.4572,-413.6935"/>
</g>
<!-- src/shared/assets/favicon.png -->
<g id="node20" class="node">
<title>src/shared/assets/favicon.png</title>
<g id="a_node20"><a xlink:href="src/shared/assets/favicon.png" xlink:title="favicon.png">
<path fill="#ffffcc" stroke="#000000" d="M532,-479.8581C532,-479.8581 480,-479.8581 480,-479.8581 477,-479.8581 474,-476.8581 474,-473.8581 474,-473.8581 474,-467.8581 474,-467.8581 474,-464.8581 477,-461.8581 480,-461.8581 480,-461.8581 532,-461.8581 532,-461.8581 535,-461.8581 538,-464.8581 538,-467.8581 538,-467.8581 538,-473.8581 538,-473.8581 538,-476.8581 535,-479.8581 532,-479.8581"/>
<text text-anchor="middle" x="506" y="-468.6581" font-family="Helvetica,sans-Serif" font-size="9.00" fill="#000000">favicon.png</text>
</a>
</g>
</g>
<!-- src/shared/App.tsx&#45;&gt;src/shared/assets/favicon.png -->
<g id="edge25" class="edge">
<title>src/shared/App.tsx&#45;&gt;src/shared/assets/favicon.png</title>
<path fill="none" stroke="#000000" stroke-width="2" stroke-opacity="0.200000" d="M413.6164,-470.8581C429.5623,-470.8581 449.9815,-470.8581 467.5659,-470.8581"/>
<polygon fill="#000000" fill-opacity="0.200000" stroke="#000000" stroke-width="2" stroke-opacity="0.200000" points="467.9026,-472.9582 473.9025,-470.8581 467.9025,-468.7582 467.9026,-472.9582"/>
</g>
<!-- src/shared/assets/react.svg -->
<g id="node21" class="node">
<title>src/shared/assets/react.svg</title>
<g id="a_node21"><a xlink:href="src/shared/assets/react.svg" xlink:title="react.svg">
<path fill="#ffffcc" stroke="#000000" d="M527,-449.8581C527,-449.8581 485,-449.8581 485,-449.8581 482,-449.8581 479,-446.8581 479,-443.8581 479,-443.8581 479,-437.8581 479,-437.8581 479,-434.8581 482,-431.8581 485,-431.8581 485,-431.8581 527,-431.8581 527,-431.8581 530,-431.8581 533,-434.8581 533,-437.8581 533,-437.8581 533,-443.8581 533,-443.8581 533,-446.8581 530,-449.8581 527,-449.8581"/>
<text text-anchor="middle" x="506" y="-438.6581" font-family="Helvetica,sans-Serif" font-size="9.00" fill="#000000">react.svg</text>
</a>
</g>
</g>
<!-- src/shared/App.tsx&#45;&gt;src/shared/assets/react.svg -->
<g id="edge27" class="edge">
<title>src/shared/App.tsx&#45;&gt;src/shared/assets/react.svg</title>
<path fill="none" stroke="#000000" stroke-width="2" stroke-opacity="0.200000" d="M413.4919,-461.8177C420.1577,-459.7284 427.3065,-457.6075 434,-455.8581 446.5185,-452.5863 460.4081,-449.5544 472.6217,-447.0851"/>
<polygon fill="#000000" fill-opacity="0.200000" stroke="#000000" stroke-width="2" stroke-opacity="0.200000" points="473.3655,-449.0783 478.8398,-445.8468 472.5452,-444.9592 473.3655,-449.0783"/>
</g>
<!-- src/shared/pages/Home/index.tsx -->
<g id="node22" class="node">
<title>src/shared/pages/Home/index.tsx</title>
<g id="a_node22"><a xlink:href="src/shared/pages/Home/index.tsx" xlink:title="index.tsx">
<path fill="#bbfeff" stroke="#000000" d="M527,-727.8581C527,-727.8581 485,-727.8581 485,-727.8581 482,-727.8581 479,-724.8581 479,-721.8581 479,-721.8581 479,-715.8581 479,-715.8581 479,-712.8581 482,-709.8581 485,-709.8581 485,-709.8581 527,-709.8581 527,-709.8581 530,-709.8581 533,-712.8581 533,-715.8581 533,-715.8581 533,-721.8581 533,-721.8581 533,-724.8581 530,-727.8581 527,-727.8581"/>
<text text-anchor="middle" x="506" y="-716.6581" font-family="Helvetica,sans-Serif" font-size="9.00" fill="#000000">index.tsx</text>
</a>
</g>
</g>
<!-- src/shared/App.tsx&#45;&gt;src/shared/pages/Home/index.tsx -->
<g id="edge28" class="edge">
<title>src/shared/App.tsx&#45;&gt;src/shared/pages/Home/index.tsx</title>
<path fill="none" stroke="#000000" stroke-width="2" stroke-opacity="0.200000" d="M387.2018,-480.0206C390.3022,-518.1789 403.9685,-664.0148 434,-696.8581 443.8668,-707.6488 458.859,-713.2097 472.613,-716.0511"/>
<polygon fill="#000000" fill-opacity="0.200000" stroke="#000000" stroke-width="2" stroke-opacity="0.200000" points="472.5445,-718.1727 478.8225,-717.1742 473.2921,-714.0398 472.5445,-718.1727"/>
</g>
<!-- src/shared/pages/Page&#45;1/index.tsx -->
<g id="node23" class="node">
<title>src/shared/pages/Page&#45;1/index.tsx</title>
<g id="a_node23"><a xlink:href="src/shared/pages/Page-1/index.tsx" xlink:title="index.tsx">
<path fill="#bbfeff" stroke="#000000" d="M527,-667.8581C527,-667.8581 485,-667.8581 485,-667.8581 482,-667.8581 479,-664.8581 479,-661.8581 479,-661.8581 479,-655.8581 479,-655.8581 479,-652.8581 482,-649.8581 485,-649.8581 485,-649.8581 527,-649.8581 527,-649.8581 530,-649.8581 533,-652.8581 533,-655.8581 533,-655.8581 533,-661.8581 533,-661.8581 533,-664.8581 530,-667.8581 527,-667.8581"/>
<text text-anchor="middle" x="506" y="-656.6581" font-family="Helvetica,sans-Serif" font-size="9.00" fill="#000000">index.tsx</text>
</a>
</g>
</g>
<!-- src/shared/App.tsx&#45;&gt;src/shared/pages/Page&#45;1/index.tsx -->
<g id="edge29" class="edge">
<title>src/shared/App.tsx&#45;&gt;src/shared/pages/Page&#45;1/index.tsx</title>
<path fill="none" stroke="#000000" stroke-width="2" stroke-opacity="0.200000" d="M387.7563,-480.0691C392.3653,-512.5045 409.3685,-620.7215 434,-643.8581 444.3303,-653.5615 459.2386,-657.6703 472.8127,-659.2118"/>
<polygon fill="#000000" fill-opacity="0.200000" stroke="#000000" stroke-width="2" stroke-opacity="0.200000" points="472.7734,-661.3163 478.9343,-659.7502 473.1415,-657.1325 472.7734,-661.3163"/>
</g>
<!-- src/shared/pages/Page&#45;2/index.tsx -->
<g id="node24" class="node">
<title>src/shared/pages/Page&#45;2/index.tsx</title>
<g id="a_node24"><a xlink:href="src/shared/pages/Page-2/index.tsx" xlink:title="index.tsx">
<path fill="#bbfeff" stroke="#000000" d="M527,-547.8581C527,-547.8581 485,-547.8581 485,-547.8581 482,-547.8581 479,-544.8581 479,-541.8581 479,-541.8581 479,-535.8581 479,-535.8581 479,-532.8581 482,-529.8581 485,-529.8581 485,-529.8581 527,-529.8581 527,-529.8581 530,-529.8581 533,-532.8581 533,-535.8581 533,-535.8581 533,-541.8581 533,-541.8581 533,-544.8581 530,-547.8581 527,-547.8581"/>
<text text-anchor="middle" x="506" y="-536.6581" font-family="Helvetica,sans-Serif" font-size="9.00" fill="#000000">index.tsx</text>
</a>
</g>
</g>
<!-- src/shared/App.tsx&#45;&gt;src/shared/pages/Page&#45;2/index.tsx -->
<g id="edge30" class="edge">
<title>src/shared/App.tsx&#45;&gt;src/shared/pages/Page&#45;2/index.tsx</title>
<path fill="none" stroke="#000000" stroke-width="2" stroke-opacity="0.200000" d="M396.0927,-479.8797C405.2875,-488.1878 419.8254,-500.462 434,-508.8581 446.4275,-516.2194 460.9984,-522.6545 473.7691,-527.6573"/>
<polygon fill="#000000" fill-opacity="0.200000" stroke="#000000" stroke-width="2" stroke-opacity="0.200000" points="473.1418,-529.6658 479.4959,-529.8533 474.6456,-525.7442 473.1418,-529.6658"/>
</g>
<!-- src/shared/routes.ts -->
<g id="node25" class="node">
<title>src/shared/routes.ts</title>
<g id="a_node25"><a xlink:href="src/shared/routes.ts" xlink:title="routes.ts">
<path fill="#ddfeff" stroke="#000000" d="M527,-385.8581C527,-385.8581 485,-385.8581 485,-385.8581 482,-385.8581 479,-382.8581 479,-379.8581 479,-379.8581 479,-373.8581 479,-373.8581 479,-370.8581 482,-367.8581 485,-367.8581 485,-367.8581 527,-367.8581 527,-367.8581 530,-367.8581 533,-370.8581 533,-373.8581 533,-373.8581 533,-379.8581 533,-379.8581 533,-382.8581 530,-385.8581 527,-385.8581"/>
<text text-anchor="middle" x="506" y="-374.6581" font-family="Helvetica,sans-Serif" font-size="9.00" fill="#000000">routes.ts</text>
</a>
</g>
</g>
<!-- src/shared/App.tsx&#45;&gt;src/shared/routes.ts -->
<g id="edge31" class="edge">
<title>src/shared/App.tsx&#45;&gt;src/shared/routes.ts</title>
<path fill="none" stroke="#000000" stroke-width="2" stroke-opacity="0.200000" d="M389.2243,-461.8498C394.7543,-445.19 408.9461,-409.6469 434,-391.8581 445.1837,-383.9174 459.6593,-379.9997 472.6949,-378.1268"/>
<polygon fill="#000000" fill-opacity="0.200000" stroke="#000000" stroke-width="2" stroke-opacity="0.200000" points="473.2562,-380.174 478.9578,-377.363 472.7477,-376.0049 473.2562,-380.174"/>
</g>
<!-- src/shared/store/app/selectors.ts -->
<g id="node29" class="node">
<title>src/shared/store/app/selectors.ts</title>
<g id="a_node29"><a xlink:href="src/shared/store/app/selectors.ts" xlink:title="selectors.ts">
<path fill="#ddfeff" stroke="#000000" d="M670,-1015.8581C670,-1015.8581 620,-1015.8581 620,-1015.8581 617,-1015.8581 614,-1012.8581 614,-1009.8581 614,-1009.8581 614,-1003.8581 614,-1003.8581 614,-1000.8581 617,-997.8581 620,-997.8581 620,-997.8581 670,-997.8581 670,-997.8581 673,-997.8581 676,-1000.8581 676,-1003.8581 676,-1003.8581 676,-1009.8581 676,-1009.8581 676,-1012.8581 673,-1015.8581 670,-1015.8581"/>
<text text-anchor="middle" x="645" y="-1004.6581" font-family="Helvetica,sans-Serif" font-size="9.00" fill="#000000">selectors.ts</text>
</a>
</g>
</g>
<!-- src/shared/i18n/IntlProvider.tsx&#45;&gt;src/shared/store/app/selectors.ts -->
<g id="edge33" class="edge">
<title>src/shared/i18n/IntlProvider.tsx&#45;&gt;src/shared/store/app/selectors.ts</title>
<path fill="none" stroke="#000000" stroke-width="2" stroke-opacity="0.200000" d="M520.6127,-1083.8172C545.575,-1068.3729 596.4731,-1036.8819 624.8121,-1019.3485"/>
<polygon fill="#000000" fill-opacity="0.200000" stroke="#000000" stroke-width="2" stroke-opacity="0.200000" points="626.1672,-1020.9795 630.1647,-1016.0368 623.9574,-1017.4079 626.1672,-1020.9795"/>
</g>
<!-- src/shared/i18n/locales/de_DE/translation.json -->
<g id="node30" class="node">
<title>src/shared/i18n/locales/de_DE/translation.json</title>
<g id="a_node30"><a xlink:href="src/shared/i18n/locales/de_DE/translation.json" xlink:title="translation.json">
<path fill="#ffee44" stroke="#000000" d="M678.5,-1177.8581C678.5,-1177.8581 611.5,-1177.8581 611.5,-1177.8581 608.5,-1177.8581 605.5,-1174.8581 605.5,-1171.8581 605.5,-1171.8581 605.5,-1165.8581 605.5,-1165.8581 605.5,-1162.8581 608.5,-1159.8581 611.5,-1159.8581 611.5,-1159.8581 678.5,-1159.8581 678.5,-1159.8581 681.5,-1159.8581 684.5,-1162.8581 684.5,-1165.8581 684.5,-1165.8581 684.5,-1171.8581 684.5,-1171.8581 684.5,-1174.8581 681.5,-1177.8581 678.5,-1177.8581"/>
<text text-anchor="middle" x="645" y="-1166.6581" font-family="Helvetica,sans-Serif" font-size="9.00" fill="#000000">translation.json</text>
</a>
</g>
</g>
<!-- src/shared/i18n/IntlProvider.tsx&#45;&gt;src/shared/i18n/locales/de_DE/translation.json -->
<g id="edge34" class="edge">
<title>src/shared/i18n/IntlProvider.tsx&#45;&gt;src/shared/i18n/locales/de_DE/translation.json</title>
<path fill="none" stroke="#000000" stroke-width="2" stroke-opacity="0.200000" d="M514.6341,-1102.2445C526.159,-1114.2408 547.7176,-1134.8843 570,-1146.8581 579.0927,-1151.7442 589.4039,-1155.6691 599.4067,-1158.7725"/>
<polygon fill="#000000" fill-opacity="0.200000" stroke="#000000" stroke-width="2" stroke-opacity="0.200000" points="598.8994,-1160.8124 605.249,-1160.5059 600.0941,-1156.7859 598.8994,-1160.8124"/>
</g>
<!-- src/shared/i18n/locales/en_US/translation.json -->
<g id="node31" class="node">
<title>src/shared/i18n/locales/en_US/translation.json</title>
<g id="a_node31"><a xlink:href="src/shared/i18n/locales/en_US/translation.json" xlink:title="translation.json">
<path fill="#ffee44" stroke="#000000" d="M678.5,-1117.8581C678.5,-1117.8581 611.5,-1117.8581 611.5,-1117.8581 608.5,-1117.8581 605.5,-1114.8581 605.5,-1111.8581 605.5,-1111.8581 605.5,-1105.8581 605.5,-1105.8581 605.5,-1102.8581 608.5,-1099.8581 611.5,-1099.8581 611.5,-1099.8581 678.5,-1099.8581 678.5,-1099.8581 681.5,-1099.8581 684.5,-1102.8581 684.5,-1105.8581 684.5,-1105.8581 684.5,-1111.8581 684.5,-1111.8581 684.5,-1114.8581 681.5,-1117.8581 678.5,-1117.8581"/>
<text text-anchor="middle" x="645" y="-1106.6581" font-family="Helvetica,sans-Serif" font-size="9.00" fill="#000000">translation.json</text>
</a>
</g>
</g>
<!-- src/shared/i18n/IntlProvider.tsx&#45;&gt;src/shared/i18n/locales/en_US/translation.json -->
<g id="edge35" class="edge">
<title>src/shared/i18n/IntlProvider.tsx&#45;&gt;src/shared/i18n/locales/en_US/translation.json</title>
<path fill="none" stroke="#000000" stroke-width="2" stroke-opacity="0.200000" d="M544.7192,-1097.315C561.4605,-1099.2421 581.1879,-1101.5128 598.6967,-1103.5282"/>
<polygon fill="#000000" fill-opacity="0.200000" stroke="#000000" stroke-width="2" stroke-opacity="0.200000" points="598.8364,-1105.6581 605.0372,-1104.2581 599.3168,-1101.4857 598.8364,-1105.6581"/>
</g>
<!-- src/shared/store/rootReducer.ts -->
<g id="node41" class="node">
<title>src/shared/store/rootReducer.ts</title>
<g id="a_node41"><a xlink:href="src/shared/store/rootReducer.ts" xlink:title="rootReducer.ts">
<path fill="#ddfeff" stroke="#000000" d="M419,-937.8581C419,-937.8581 354,-937.8581 354,-937.8581 351,-937.8581 348,-934.8581 348,-931.8581 348,-931.8581 348,-925.8581 348,-925.8581 348,-922.8581 351,-919.8581 354,-919.8581 354,-919.8581 419,-919.8581 419,-919.8581 422,-919.8581 425,-922.8581 425,-925.8581 425,-925.8581 425,-931.8581 425,-931.8581 425,-934.8581 422,-937.8581 419,-937.8581"/>
<text text-anchor="middle" x="386.5" y="-926.6581" font-family="Helvetica,sans-Serif" font-size="9.00" fill="#000000">rootReducer.ts</text>
</a>
</g>
</g>
<!-- src/shared/store/index.ts&#45;&gt;src/shared/store/rootReducer.ts -->
<g id="edge49" class="edge">
<title>src/shared/store/index.ts&#45;&gt;src/shared/store/rootReducer.ts</title>
<path fill="none" stroke="#000000" stroke-width="2" stroke-opacity="0.200000" d="M305.753,-928.8581C316.6084,-928.8581 329.3931,-928.8581 341.5482,-928.8581"/>
<polygon fill="#000000" fill-opacity="0.200000" stroke="#000000" stroke-width="2" stroke-opacity="0.200000" points="341.8337,-930.9582 347.8336,-928.8581 341.8336,-926.7582 341.8337,-930.9582"/>
</g>
<!-- src/global.d.ts -->
<g id="node9" class="node">
<title>src/global.d.ts</title>
<g id="a_node9"><a xlink:href="src/global.d.ts" xlink:title="global.d.ts">
<path fill="#ccffcc" stroke="#000000" d="M74.5,-137.8581C74.5,-137.8581 27.5,-137.8581 27.5,-137.8581 24.5,-137.8581 21.5,-134.8581 21.5,-131.8581 21.5,-131.8581 21.5,-125.8581 21.5,-125.8581 21.5,-122.8581 24.5,-119.8581 27.5,-119.8581 27.5,-119.8581 74.5,-119.8581 74.5,-119.8581 77.5,-119.8581 80.5,-122.8581 80.5,-125.8581 80.5,-125.8581 80.5,-131.8581 80.5,-131.8581 80.5,-134.8581 77.5,-137.8581 74.5,-137.8581"/>
<text text-anchor="middle" x="51" y="-126.6581" font-family="Helvetica,sans-Serif" font-size="9.00" fill="#000000">global.d.ts</text>
</a>
</g>
</g>
<!-- src/server/components/HTML.tsx -->
<g id="node10" class="node">
<title>src/server/components/HTML.tsx</title>
<g id="a_node10"><a xlink:href="src/server/components/HTML.tsx" xlink:title="HTML.tsx">
<path fill="#bbfeff" stroke="#000000" d="M300,-273.8581C300,-273.8581 257,-273.8581 257,-273.8581 254,-273.8581 251,-270.8581 251,-267.8581 251,-267.8581 251,-261.8581 251,-261.8581 251,-258.8581 254,-255.8581 257,-255.8581 257,-255.8581 300,-255.8581 300,-255.8581 303,-255.8581 306,-258.8581 306,-261.8581 306,-261.8581 306,-267.8581 306,-267.8581 306,-270.8581 303,-273.8581 300,-273.8581"/>
<text text-anchor="middle" x="278.5" y="-262.6581" font-family="Helvetica,sans-Serif" font-size="9.00" fill="#000000">HTML.tsx</text>
</a>
</g>
</g>
<!-- src/server/index.ts -->
<g id="node11" class="node">
<title>src/server/index.ts</title>
<g id="a_node11"><a xlink:href="src/server/index.ts" xlink:title="index.ts">
<path fill="#ddfeff" stroke="#000000" d="M72,-209.8581C72,-209.8581 30,-209.8581 30,-209.8581 27,-209.8581 24,-206.8581 24,-203.8581 24,-203.8581 24,-197.8581 24,-197.8581 24,-194.8581 27,-191.8581 30,-191.8581 30,-191.8581 72,-191.8581 72,-191.8581 75,-191.8581 78,-194.8581 78,-197.8581 78,-197.8581 78,-203.8581 78,-203.8581 78,-206.8581 75,-209.8581 72,-209.8581"/>
<text text-anchor="middle" x="51" y="-198.6581" font-family="Helvetica,sans-Serif" font-size="9.00" fill="#000000">index.ts</text>
</a>
</g>
</g>
<!-- src/server/index.ts&#45;&gt;config/paths.ts -->
<g id="edge7" class="edge">
<title>src/server/index.ts&#45;&gt;config/paths.ts</title>
<path fill="none" stroke="#000000" stroke-width="2" stroke-opacity="0.200000" d="M76.3633,-191.8116C77.8933,-190.6447 79.2971,-189.3326 80.5,-187.8581 91.1356,-174.8218 76.9385,-163.0808 88.5,-150.8581 159.2639,-76.0474 291.3986,-67.3183 353.1244,-67.6365"/>
<polygon fill="#000000" fill-opacity="0.200000" stroke="#000000" stroke-width="2" stroke-opacity="0.200000" points="353.2084,-69.7374 359.2296,-67.699 353.2514,-65.5376 353.2084,-69.7374"/>
</g>
<!-- src/server/index.ts&#45;&gt;path -->
<g id="edge13" class="edge">
<title>src/server/index.ts&#45;&gt;path</title>
<path fill="none" stroke="#000000" stroke-dasharray="5,2" stroke-opacity="0.200000" d="M76.8584,-191.7762C78.2303,-190.6209 79.4664,-189.3208 80.5,-187.8581 94.2605,-168.3853 75.2462,-100.6793 88.5,-80.8581 125.2906,-25.8373 157.1713,-29.4356 221.5,-13.8581 309.8369,7.533 336.0734,.3403 426,-12.8581 443.0984,-15.3676 461.6152,-20.7421 476.524,-25.7702"/>
<polygon fill="#000000" fill-opacity="0.200000" stroke="#000000" stroke-opacity="0.200000" points="475.9019,-27.7769 482.2587,-27.7467 477.2705,-23.8061 475.9019,-27.7769"/>
</g>
<!-- src/server/middleware/addStore.ts -->
<g id="node12" class="node">
<title>src/server/middleware/addStore.ts</title>
<g id="a_node12"><a xlink:href="src/server/middleware/addStore.ts" xlink:title="addStore.ts">
<path fill="#ddfeff" stroke="#000000" d="M176.5,-269.8581C176.5,-269.8581 125.5,-269.8581 125.5,-269.8581 122.5,-269.8581 119.5,-266.8581 119.5,-263.8581 119.5,-263.8581 119.5,-257.8581 119.5,-257.8581 119.5,-254.8581 122.5,-251.8581 125.5,-251.8581 125.5,-251.8581 176.5,-251.8581 176.5,-251.8581 179.5,-251.8581 182.5,-254.8581 182.5,-257.8581 182.5,-257.8581 182.5,-263.8581 182.5,-263.8581 182.5,-266.8581 179.5,-269.8581 176.5,-269.8581"/>
<text text-anchor="middle" x="151" y="-258.6581" font-family="Helvetica,sans-Serif" font-size="9.00" fill="#000000">addStore.ts</text>
</a>
</g>
</g>
<!-- src/server/index.ts&#45;&gt;src/server/middleware/addStore.ts -->
<g id="edge8" class="edge">
<title>src/server/index.ts&#45;&gt;src/server/middleware/addStore.ts</title>
<path fill="none" stroke="#000000" stroke-width="2" stroke-opacity="0.200000" d="M56.1022,-209.959C62.3722,-220.2808 73.9867,-236.8437 88.5,-245.8581 95.9708,-250.4983 104.7653,-253.7031 113.3604,-255.9166"/>
<polygon fill="#000000" fill-opacity="0.200000" stroke="#000000" stroke-width="2" stroke-opacity="0.200000" points="112.9397,-257.9748 119.2603,-257.296 113.896,-253.8851 112.9397,-257.9748"/>
</g>
<!-- src/server/middleware/errorHandler.ts -->
<g id="node13" class="node">
<title>src/server/middleware/errorHandler.ts</title>
<g id="a_node13"><a xlink:href="src/server/middleware/errorHandler.ts" xlink:title="errorHandler.ts">
<path fill="#ddfeff" stroke="#000000" d="M184,-179.8581C184,-179.8581 118,-179.8581 118,-179.8581 115,-179.8581 112,-176.8581 112,-173.8581 112,-173.8581 112,-167.8581 112,-167.8581 112,-164.8581 115,-161.8581 118,-161.8581 118,-161.8581 184,-161.8581 184,-161.8581 187,-161.8581 190,-164.8581 190,-167.8581 190,-167.8581 190,-173.8581 190,-173.8581 190,-176.8581 187,-179.8581 184,-179.8581"/>
<text text-anchor="middle" x="151" y="-168.6581" font-family="Helvetica,sans-Serif" font-size="9.00" fill="#000000">errorHandler.ts</text>
</a>
</g>
</g>
<!-- src/server/index.ts&#45;&gt;src/server/middleware/errorHandler.ts -->
<g id="edge9" class="edge">
<title>src/server/index.ts&#45;&gt;src/server/middleware/errorHandler.ts</title>
<path fill="none" stroke="#000000" stroke-width="2" stroke-opacity="0.200000" d="M72.2227,-191.7487C77.4878,-189.6614 83.1545,-187.5588 88.5,-185.8581 94.0826,-184.082 100.0041,-182.4035 105.8906,-180.8573"/>
<polygon fill="#000000" fill-opacity="0.200000" stroke="#000000" stroke-width="2" stroke-opacity="0.200000" points="106.4601,-182.8793 111.7516,-179.3565 105.4182,-178.8106 106.4601,-182.8793"/>
</g>
<!-- src/server/middleware/i18n.ts -->
<g id="node14" class="node">
<title>src/server/middleware/i18n.ts</title>
<g id="a_node14"><a xlink:href="src/server/middleware/i18n.ts" xlink:title="i18n.ts">
<path fill="#ddfeff" stroke="#000000" d="M172,-209.8581C172,-209.8581 130,-209.8581 130,-209.8581 127,-209.8581 124,-206.8581 124,-203.8581 124,-203.8581 124,-197.8581 124,-197.8581 124,-194.8581 127,-191.8581 130,-191.8581 130,-191.8581 172,-191.8581 172,-191.8581 175,-191.8581 178,-194.8581 178,-197.8581 178,-197.8581 178,-203.8581 178,-203.8581 178,-206.8581 175,-209.8581 172,-209.8581"/>
<text text-anchor="middle" x="151" y="-198.6581" font-family="Helvetica,sans-Serif" font-size="9.00" fill="#000000">i18n.ts</text>
</a>
</g>
</g>
<!-- src/server/index.ts&#45;&gt;src/server/middleware/i18n.ts -->
<g id="edge10" class="edge">
<title>src/server/index.ts&#45;&gt;src/server/middleware/i18n.ts</title>
<path fill="none" stroke="#000000" stroke-width="2" stroke-opacity="0.200000" d="M78.0614,-200.8581C90.2897,-200.8581 104.855,-200.8581 117.7426,-200.8581"/>
<polygon fill="#000000" fill-opacity="0.200000" stroke="#000000" stroke-width="2" stroke-opacity="0.200000" points="117.917,-202.9582 123.9169,-200.8581 117.9169,-198.7582 117.917,-202.9582"/>
</g>
<!-- src/server/middleware/serverRenderer.tsx -->
<g id="node15" class="node">
<title>src/server/middleware/serverRenderer.tsx</title>
<g id="a_node15"><a xlink:href="src/server/middleware/serverRenderer.tsx" xlink:title="serverRenderer.tsx">
<path fill="#bbfeff" stroke="#000000" d="M192.5,-239.8581C192.5,-239.8581 109.5,-239.8581 109.5,-239.8581 106.5,-239.8581 103.5,-236.8581 103.5,-233.8581 103.5,-233.8581 103.5,-227.8581 103.5,-227.8581 103.5,-224.8581 106.5,-221.8581 109.5,-221.8581 109.5,-221.8581 192.5,-221.8581 192.5,-221.8581 195.5,-221.8581 198.5,-224.8581 198.5,-227.8581 198.5,-227.8581 198.5,-233.8581 198.5,-233.8581 198.5,-236.8581 195.5,-239.8581 192.5,-239.8581"/>
<text text-anchor="middle" x="151" y="-228.6581" font-family="Helvetica,sans-Serif" font-size="9.00" fill="#000000">serverRenderer.tsx</text>
</a>
</g>
</g>
<!-- src/server/index.ts&#45;&gt;src/server/middleware/serverRenderer.tsx -->
<g id="edge11" class="edge">
<title>src/server/index.ts&#45;&gt;src/server/middleware/serverRenderer.tsx</title>
<path fill="none" stroke="#000000" stroke-width="2" stroke-opacity="0.200000" d="M72.2227,-209.9676C77.4878,-212.0548 83.1545,-214.1574 88.5,-215.8581 93.3915,-217.4143 98.543,-218.8956 103.7033,-220.2786"/>
<polygon fill="#000000" fill-opacity="0.200000" stroke="#000000" stroke-width="2" stroke-opacity="0.200000" points="103.4141,-222.3734 109.7499,-221.8556 104.4741,-218.3093 103.4141,-222.3734"/>
</g>
<!-- src/server/middleware/webhookVerification.ts -->
<g id="node16" class="node">
<title>src/server/middleware/webhookVerification.ts</title>
<g id="a_node16"><a xlink:href="src/server/middleware/webhookVerification.ts" xlink:title="webhookVerification.ts">
<path fill="#ddfeff" stroke="#000000" d="M199.5,-299.8581C199.5,-299.8581 102.5,-299.8581 102.5,-299.8581 99.5,-299.8581 96.5,-296.8581 96.5,-293.8581 96.5,-293.8581 96.5,-287.8581 96.5,-287.8581 96.5,-284.8581 99.5,-281.8581 102.5,-281.8581 102.5,-281.8581 199.5,-281.8581 199.5,-281.8581 202.5,-281.8581 205.5,-284.8581 205.5,-287.8581 205.5,-287.8581 205.5,-293.8581 205.5,-293.8581 205.5,-296.8581 202.5,-299.8581 199.5,-299.8581"/>
<text text-anchor="middle" x="151" y="-288.6581" font-family="Helvetica,sans-Serif" font-size="9.00" fill="#000000">webhookVerification.ts</text>
</a>
</g>
</g>
<!-- src/server/index.ts&#45;&gt;src/server/middleware/webhookVerification.ts -->
<g id="edge12" class="edge">
<title>src/server/index.ts&#45;&gt;src/server/middleware/webhookVerification.ts</title>
<path fill="none" stroke="#000000" stroke-width="2" stroke-opacity="0.200000" d="M52.9345,-210.0639C56.7838,-226.0201 66.9569,-258.7432 88.5,-275.8581 89.7614,-276.8603 91.0794,-277.7971 92.4434,-278.6727"/>
<polygon fill="#000000" fill-opacity="0.200000" stroke="#000000" stroke-width="2" stroke-opacity="0.200000" points="91.6535,-280.6382 97.9114,-281.756 93.7165,-276.9797 91.6535,-280.6382"/>
</g>
<!-- src/server/middleware/addStore.ts&#45;&gt;src/shared/store/index.ts -->
<g id="edge17" class="edge">
<title>src/server/middleware/addStore.ts&#45;&gt;src/shared/store/index.ts</title>
<path fill="none" stroke="#000000" stroke-width="2" stroke-opacity="0.200000" d="M182.625,-260.7529C194.1348,-262.455 206.1189,-266.6153 213.5,-275.8581 235.6891,-303.6437 199.1542,-888.1984 221.5,-915.8581 227.3603,-923.1119 236.3558,-926.8336 245.4813,-928.624"/>
<polygon fill="#000000" fill-opacity="0.200000" stroke="#000000" stroke-width="2" stroke-opacity="0.200000" points="245.2166,-930.7079 251.4652,-929.5394 245.8518,-926.5562 245.2166,-930.7079"/>
</g>
<!-- src/server/middleware/errorHandler.ts&#45;&gt;path -->
<g id="edge18" class="edge">
<title>src/server/middleware/errorHandler.ts&#45;&gt;path</title>
<path fill="none" stroke="#000000" stroke-dasharray="5,2" stroke-opacity="0.200000" d="M153.658,-161.7558C160.6933,-139.361 182.0205,-81.3424 221.5,-52.8581 297.1742,1.7406 415.7891,-15.4334 472.9809,-28.2546"/>
<polygon fill="#000000" fill-opacity="0.200000" stroke="#000000" stroke-opacity="0.200000" points="472.6649,-30.3367 478.9829,-29.6351 473.6064,-26.2436 472.6649,-30.3367"/>
</g>
<!-- src/server/middleware/i18n.ts&#45;&gt;fs -->
<g id="edge20" class="edge">
<title>src/server/middleware/i18n.ts&#45;&gt;fs</title>
<path fill="none" stroke="#000000" stroke-dasharray="5,2" stroke-opacity="0.200000" d="M178.2067,-200.3003C190.397,-198.6827 204.1099,-194.7676 213.5,-185.8581 222.5792,-177.2436 212.3596,-167.4076 221.5,-158.8581 239.8939,-141.6534 401.5946,-112.5253 472.6973,-100.4059"/>
<polygon fill="#000000" fill-opacity="0.200000" stroke="#000000" stroke-opacity="0.200000" points="473.3175,-102.4308 478.8812,-99.3559 472.6143,-98.2901 473.3175,-102.4308"/>
</g>
<!-- src/server/middleware/i18n.ts&#45;&gt;path -->
<g id="edge21" class="edge">
<title>src/server/middleware/i18n.ts&#45;&gt;path</title>
<path fill="none" stroke="#000000" stroke-dasharray="5,2" stroke-opacity="0.200000" d="M178.2256,-201.0131C190.7242,-199.5968 204.6913,-195.6453 213.5,-185.8581 231.7919,-165.5343 206.8938,-147.9733 221.5,-124.8581 254.7227,-72.281 280.0208,-68.5952 339,-48.8581 383.5045,-33.9649 438.2969,-33.0842 472.6993,-34.4651"/>
<polygon fill="#000000" fill-opacity="0.200000" stroke="#000000" stroke-opacity="0.200000" points="472.7893,-36.5713 478.8786,-34.7464 472.9804,-32.3756 472.7893,-36.5713"/>
</g>
<!-- src/server/lib/i18n/lokalise.ts -->
<g id="node17" class="node">
<title>src/server/lib/i18n/lokalise.ts</title>
<g id="a_node17"><a xlink:href="src/server/lib/i18n/lokalise.ts" xlink:title="lokalise.ts">
<path fill="#ddfeff" stroke="#000000" d="M301,-187.8581C301,-187.8581 256,-187.8581 256,-187.8581 253,-187.8581 250,-184.8581 250,-181.8581 250,-181.8581 250,-175.8581 250,-175.8581 250,-172.8581 253,-169.8581 256,-169.8581 256,-169.8581 301,-169.8581 301,-169.8581 304,-169.8581 307,-172.8581 307,-175.8581 307,-175.8581 307,-181.8581 307,-181.8581 307,-184.8581 304,-187.8581 301,-187.8581"/>
<text text-anchor="middle" x="278.5" y="-176.6581" font-family="Helvetica,sans-Serif" font-size="9.00" fill="#000000">lokalise.ts</text>
</a>
</g>
</g>
<!-- src/server/middleware/i18n.ts&#45;&gt;src/server/lib/i18n/lokalise.ts -->
<g id="edge19" class="edge">
<title>src/server/middleware/i18n.ts&#45;&gt;src/server/lib/i18n/lokalise.ts</title>
<path fill="none" stroke="#000000" stroke-width="2" stroke-opacity="0.200000" d="M178.0395,-196.1925C197.2004,-192.8863 223.0733,-188.4219 243.7634,-184.8519"/>
<polygon fill="#000000" fill-opacity="0.200000" stroke="#000000" stroke-width="2" stroke-opacity="0.200000" points="244.172,-186.9125 249.7275,-183.8228 243.4578,-182.7737 244.172,-186.9125"/>
</g>
<!-- src/server/middleware/serverRenderer.tsx&#45;&gt;src/shared/App.tsx -->
<g id="edge22" class="edge">
<title>src/server/middleware/serverRenderer.tsx&#45;&gt;src/shared/App.tsx</title>
<path fill="none" stroke="#000000" stroke-width="2" stroke-opacity="0.200000" d="M198.6377,-235.5128C204.2917,-237.8927 209.4731,-241.2265 213.5,-245.8581 225.6579,-259.8418 212.974,-312.4062 221.5,-328.8581 253.7703,-391.1271 325.9578,-437.736 363.2343,-458.6682"/>
<polygon fill="#000000" fill-opacity="0.200000" stroke="#000000" stroke-width="2" stroke-opacity="0.200000" points="362.639,-460.7387 368.9057,-461.8057 364.6721,-457.0636 362.639,-460.7387"/>
</g>
<!-- src/server/middleware/serverRenderer.tsx&#45;&gt;src/shared/i18n/IntlProvider.tsx -->
<g id="edge23" class="edge">
<title>src/server/middleware/serverRenderer.tsx&#45;&gt;src/shared/i18n/IntlProvider.tsx</title>
<path fill="none" stroke="#000000" stroke-width="2" stroke-opacity="0.200000" d="M198.7632,-235.8056C204.3257,-238.1513 209.4487,-241.3975 213.5,-245.8581 230.6992,-264.7951 204.5161,-283.7279 221.5,-302.8581 283.9103,-373.1556 368.2065,-282.7184 426,-356.8581 437.7503,-371.9318 424.8838,-1028.0599 434,-1044.8581 442.9985,-1061.4396 460.4941,-1073.3035 475.9851,-1081.0882"/>
<polygon fill="#000000" fill-opacity="0.200000" stroke="#000000" stroke-width="2" stroke-opacity="0.200000" points="475.2641,-1083.0714 481.5822,-1083.7728 477.0805,-1079.2845 475.2641,-1083.0714"/>
</g>
<!-- src/server/middleware/serverRenderer.tsx&#45;&gt;src/server/components/HTML.tsx -->
<g id="edge24" class="edge">
<title>src/server/middleware/serverRenderer.tsx&#45;&gt;src/server/components/HTML.tsx</title>
<path fill="none" stroke="#000000" stroke-width="2" stroke-opacity="0.200000" d="M190.0818,-239.9271C197.8578,-241.819 205.9513,-243.8503 213.5,-245.8581 223.7577,-248.5865 234.8644,-251.7535 244.9456,-254.7105"/>
<polygon fill="#000000" fill-opacity="0.200000" stroke="#000000" stroke-width="2" stroke-opacity="0.200000" points="244.3996,-256.7388 250.7486,-256.4223 245.588,-252.7104 244.3996,-256.7388"/>
</g>
<!-- src/server/lib/i18n/lokalise.ts&#45;&gt;config/paths.ts -->
<g id="edge14" class="edge">
<title>src/server/lib/i18n/lokalise.ts&#45;&gt;config/paths.ts</title>
<path fill="none" stroke="#000000" stroke-width="2" stroke-opacity="0.200000" d="M287.3381,-169.8564C306.2452,-150.5991 350.7149,-105.3059 373.1125,-82.4935"/>
<polygon fill="#000000" fill-opacity="0.200000" stroke="#000000" stroke-width="2" stroke-opacity="0.200000" points="374.8347,-83.7369 377.5398,-77.9843 371.8377,-80.7944 374.8347,-83.7369"/>
</g>
<!-- src/server/lib/i18n/lokalise.ts&#45;&gt;fs -->
<g id="edge15" class="edge">
<title>src/server/lib/i18n/lokalise.ts&#45;&gt;fs</title>
<path fill="none" stroke="#000000" stroke-dasharray="5,2" stroke-opacity="0.200000" d="M307.1264,-179.1294C337.7362,-178.4448 387.118,-174.4922 426,-157.8581 452.8692,-146.3632 478.3964,-123.4433 493.1104,-108.6472"/>
<polygon fill="#000000" fill-opacity="0.200000" stroke="#000000" stroke-opacity="0.200000" points="494.9868,-109.7309 497.6722,-103.969 491.9798,-106.7987 494.9868,-109.7309"/>
</g>
<!-- src/server/lib/i18n/lokalise.ts&#45;&gt;path -->
<g id="edge16" class="edge">
<title>src/server/lib/i18n/lokalise.ts&#45;&gt;path</title>
<path fill="none" stroke="#000000" stroke-dasharray="5,2" stroke-opacity="0.200000" d="M302.6166,-169.8417C339.9004,-155.4643 409.0177,-126.9235 426,-106.8581 434.0855,-97.3047 426.3241,-89.7436 434,-79.8581 444.7997,-65.9497 461.4655,-55.5854 476.0441,-48.5209"/>
<polygon fill="#000000" fill-opacity="0.200000" stroke="#000000" stroke-opacity="0.200000" points="477.1655,-50.3154 481.7207,-45.8815 475.3947,-46.507 477.1655,-50.3154"/>
</g>
<!-- src/shared/App.module.css.d.ts -->
<g id="node19" class="node">
<title>src/shared/App.module.css.d.ts</title>
<g id="a_node19"><a xlink:href="src/shared/App.module.css.d.ts" xlink:title="App.module.css.d.ts">
<path fill="#ccffcc" stroke="#000000" d="M321.5,-845.8581C321.5,-845.8581 235.5,-845.8581 235.5,-845.8581 232.5,-845.8581 229.5,-842.8581 229.5,-839.8581 229.5,-839.8581 229.5,-833.8581 229.5,-833.8581 229.5,-830.8581 232.5,-827.8581 235.5,-827.8581 235.5,-827.8581 321.5,-827.8581 321.5,-827.8581 324.5,-827.8581 327.5,-830.8581 327.5,-833.8581 327.5,-833.8581 327.5,-839.8581 327.5,-839.8581 327.5,-842.8581 324.5,-845.8581 321.5,-845.8581"/>
<text text-anchor="middle" x="278.5" y="-834.6581" font-family="Helvetica,sans-Serif" font-size="9.00" fill="#000000">App.module.css.d.ts</text>
</a>
</g>
</g>
<!-- src/shared/components/Features/index.tsx -->
<g id="node28" class="node">
<title>src/shared/components/Features/index.tsx</title>
<g id="a_node28"><a xlink:href="src/shared/components/Features/index.tsx" xlink:title="index.tsx">
<path fill="#bbfeff" stroke="#000000" d="M666,-821.8581C666,-821.8581 624,-821.8581 624,-821.8581 621,-821.8581 618,-818.8581 618,-815.8581 618,-815.8581 618,-809.8581 618,-809.8581 618,-806.8581 621,-803.8581 624,-803.8581 624,-803.8581 666,-803.8581 666,-803.8581 669,-803.8581 672,-806.8581 672,-809.8581 672,-809.8581 672,-815.8581 672,-815.8581 672,-818.8581 669,-821.8581 666,-821.8581"/>
<text text-anchor="middle" x="645" y="-810.6581" font-family="Helvetica,sans-Serif" font-size="9.00" fill="#000000">index.tsx</text>
</a>
</g>
</g>
<!-- src/shared/pages/Home/index.tsx&#45;&gt;src/shared/components/Features/index.tsx -->
<g id="edge36" class="edge">
<title>src/shared/pages/Home/index.tsx&#45;&gt;src/shared/components/Features/index.tsx</title>
<path fill="none" stroke="#000000" stroke-width="2" stroke-opacity="0.200000" d="M519.3279,-727.8712C544.2758,-744.7425 598.0663,-781.1188 626.5057,-800.3512"/>
<polygon fill="#000000" fill-opacity="0.200000" stroke="#000000" stroke-width="2" stroke-opacity="0.200000" points="625.3616,-802.1126 631.5082,-803.7342 627.7144,-798.6334 625.3616,-802.1126"/>
</g>
<!-- src/shared/store/app/actions.ts -->
<g id="node32" class="node">
<title>src/shared/store/app/actions.ts</title>
<g id="a_node32"><a xlink:href="src/shared/store/app/actions.ts" xlink:title="actions.ts">
<path fill="#ddfeff" stroke="#000000" d="M666.5,-971.8581C666.5,-971.8581 623.5,-971.8581 623.5,-971.8581 620.5,-971.8581 617.5,-968.8581 617.5,-965.8581 617.5,-965.8581 617.5,-959.8581 617.5,-959.8581 617.5,-956.8581 620.5,-953.8581 623.5,-953.8581 623.5,-953.8581 666.5,-953.8581 666.5,-953.8581 669.5,-953.8581 672.5,-956.8581 672.5,-959.8581 672.5,-959.8581 672.5,-965.8581 672.5,-965.8581 672.5,-968.8581 669.5,-971.8581 666.5,-971.8581"/>
<text text-anchor="middle" x="645" y="-960.6581" font-family="Helvetica,sans-Serif" font-size="9.00" fill="#000000">actions.ts</text>
</a>
</g>
</g>
<!-- src/shared/pages/Home/index.tsx&#45;&gt;src/shared/store/app/actions.ts -->
<g id="edge37" class="edge">
<title>src/shared/pages/Home/index.tsx&#45;&gt;src/shared/store/app/actions.ts</title>
<path fill="none" stroke="#000000" stroke-width="2" stroke-opacity="0.200000" d="M507.6725,-727.888C514.554,-764.2106 541.6583,-899.2108 570,-930.8581 580.7428,-942.8539 596.7464,-950.5073 611.2146,-955.3088"/>
<polygon fill="#000000" fill-opacity="0.200000" stroke="#000000" stroke-width="2" stroke-opacity="0.200000" points="610.9487,-957.425 617.3015,-957.1964 612.1927,-953.4134 610.9487,-957.425"/>
</g>
<!-- src/shared/store/app/types.ts -->
<g id="node33" class="node">
<title>src/shared/store/app/types.ts</title>
<g id="a_node33"><a xlink:href="src/shared/store/app/types.ts" xlink:title="types.ts">
<path fill="#ddfeff" stroke="#000000" d="M788.5,-982.8581C788.5,-982.8581 746.5,-982.8581 746.5,-982.8581 743.5,-982.8581 740.5,-979.8581 740.5,-976.8581 740.5,-976.8581 740.5,-970.8581 740.5,-970.8581 740.5,-967.8581 743.5,-964.8581 746.5,-964.8581 746.5,-964.8581 788.5,-964.8581 788.5,-964.8581 791.5,-964.8581 794.5,-967.8581 794.5,-970.8581 794.5,-970.8581 794.5,-976.8581 794.5,-976.8581 794.5,-979.8581 791.5,-982.8581 788.5,-982.8581"/>
<text text-anchor="middle" x="767.5" y="-971.6581" font-family="Helvetica,sans-Serif" font-size="9.00" fill="#000000">types.ts</text>
</a>
</g>
</g>
<!-- src/shared/pages/Home/index.tsx&#45;&gt;src/shared/store/app/types.ts -->
<g id="edge38" class="edge">
<title>src/shared/pages/Home/index.tsx&#45;&gt;src/shared/store/app/types.ts</title>
<path fill="none" stroke="#000000" stroke-width="2" stroke-opacity="0.200000" d="M507.2481,-728.184C511.3193,-755.2019 526.5516,-834.5433 570,-880.8581 576.3668,-887.6449 689.2421,-938.7708 741.4287,-962.197"/>
<polygon fill="#000000" fill-opacity="0.200000" stroke="#000000" stroke-width="2" stroke-opacity="0.200000" points="740.8485,-964.2383 747.1825,-964.7779 742.5675,-960.4061 740.8485,-964.2383"/>
</g>
<!-- src/shared/pages/Page&#45;1/Page&#45;1.module.css -->
<g id="node35" class="node">
<title>src/shared/pages/Page&#45;1/Page&#45;1.module.css</title>
<g id="a_node35"><a xlink:href="src/shared/pages/Page-1/Page-1.module.css" xlink:title="Page&#45;1.module.css">
<path fill="#ffffcc" stroke="#000000" d="M686.5,-667.8581C686.5,-667.8581 603.5,-667.8581 603.5,-667.8581 600.5,-667.8581 597.5,-664.8581 597.5,-661.8581 597.5,-661.8581 597.5,-655.8581 597.5,-655.8581 597.5,-652.8581 600.5,-649.8581 603.5,-649.8581 603.5,-649.8581 686.5,-649.8581 686.5,-649.8581 689.5,-649.8581 692.5,-652.8581 692.5,-655.8581 692.5,-655.8581 692.5,-661.8581 692.5,-661.8581 692.5,-664.8581 689.5,-667.8581 686.5,-667.8581"/>
<text text-anchor="middle" x="645" y="-656.6581" font-family="Helvetica,sans-Serif" font-size="9.00" fill="#000000">Page&#45;1.module.css</text>
</a>
</g>
</g>
<!-- src/shared/pages/Page&#45;1/index.tsx&#45;&gt;src/shared/pages/Page&#45;1/Page&#45;1.module.css -->
<g id="edge39" class="edge">
<title>src/shared/pages/Page&#45;1/index.tsx&#45;&gt;src/shared/pages/Page&#45;1/Page&#45;1.module.css</title>
<path fill="none" stroke="#000000" stroke-width="2" stroke-opacity="0.200000" d="M533.1306,-658.8581C549.6702,-658.8581 571.3867,-658.8581 591.2816,-658.8581"/>
<polygon fill="#000000" fill-opacity="0.200000" stroke="#000000" stroke-width="2" stroke-opacity="0.200000" points="591.3897,-660.9582 597.3897,-658.8581 591.3897,-656.7582 591.3897,-660.9582"/>
</g>
<!-- src/shared/components/Features/Features.module.css -->
<g id="node26" class="node">
<title>src/shared/components/Features/Features.module.css</title>
<g id="a_node26"><a xlink:href="src/shared/components/Features/Features.module.css" xlink:title="Features.module.css">
<path fill="#ffffcc" stroke="#000000" d="M812,-821.8581C812,-821.8581 723,-821.8581 723,-821.8581 720,-821.8581 717,-818.8581 717,-815.8581 717,-815.8581 717,-809.8581 717,-809.8581 717,-806.8581 720,-803.8581 723,-803.8581 723,-803.8581 812,-803.8581 812,-803.8581 815,-803.8581 818,-806.8581 818,-809.8581 818,-809.8581 818,-815.8581 818,-815.8581 818,-818.8581 815,-821.8581 812,-821.8581"/>
<text text-anchor="middle" x="767.5" y="-810.6581" font-family="Helvetica,sans-Serif" font-size="9.00" fill="#000000">Features.module.css</text>
</a>
</g>
</g>
<!-- src/shared/components/Features/Features.module.css.d.ts -->
<g id="node27" class="node">
<title>src/shared/components/Features/Features.module.css.d.ts</title>
<g id="a_node27"><a xlink:href="src/shared/components/Features/Features.module.css.d.ts" xlink:title="Features.module.css.d.ts">
<path fill="#ccffcc" stroke="#000000" d="M698,-851.8581C698,-851.8581 592,-851.8581 592,-851.8581 589,-851.8581 586,-848.8581 586,-845.8581 586,-845.8581 586,-839.8581 586,-839.8581 586,-836.8581 589,-833.8581 592,-833.8581 592,-833.8581 698,-833.8581 698,-833.8581 701,-833.8581 704,-836.8581 704,-839.8581 704,-839.8581 704,-845.8581 704,-845.8581 704,-848.8581 701,-851.8581 698,-851.8581"/>
<text text-anchor="middle" x="645" y="-840.6581" font-family="Helvetica,sans-Serif" font-size="9.00" fill="#000000">Features.module.css.d.ts</text>
</a>
</g>
</g>
<!-- src/shared/components/Features/index.tsx&#45;&gt;src/shared/components/Features/Features.module.css -->
<g id="edge32" class="edge">
<title>src/shared/components/Features/index.tsx&#45;&gt;src/shared/components/Features/Features.module.css</title>
<path fill="none" stroke="#000000" stroke-width="2" stroke-opacity="0.200000" d="M672.1867,-812.8581C683.5561,-812.8581 697.2215,-812.8581 710.6078,-812.8581"/>
<polygon fill="#000000" fill-opacity="0.200000" stroke="#000000" stroke-width="2" stroke-opacity="0.200000" points="710.7295,-814.9582 716.7294,-812.8581 710.7294,-810.7582 710.7295,-814.9582"/>
</g>
<!-- src/shared/store/app/selectors.ts&#45;&gt;src/shared/store/app/types.ts -->
<g id="edge48" class="edge">
<title>src/shared/store/app/selectors.ts&#45;&gt;src/shared/store/app/types.ts</title>
<path fill="none" stroke="#000000" stroke-width="2" stroke-opacity="0.200000" d="M676.2289,-998.4454C694.0612,-993.6416 716.4039,-987.6228 734.5199,-982.7426"/>
<polygon fill="#000000" fill-opacity="0.200000" stroke="#000000" stroke-width="2" stroke-opacity="0.200000" points="735.2417,-984.7231 740.4889,-981.1346 734.1492,-980.6676 735.2417,-984.7231"/>
</g>
<!-- src/shared/store/app/actions.ts&#45;&gt;src/shared/store/app/types.ts -->
<g id="edge41" class="edge">
<title>src/shared/store/app/actions.ts&#45;&gt;src/shared/store/app/types.ts</title>
<path fill="none" stroke="#000000" stroke-width="2" stroke-opacity="0.200000" d="M672.7971,-965.3542C691.0146,-966.99 714.9275,-969.1373 734.166,-970.8649"/>
<polygon fill="#000000" fill-opacity="0.200000" stroke="#000000" stroke-width="2" stroke-opacity="0.200000" points="734.071,-972.9647 740.2348,-971.4098 734.4467,-968.7815 734.071,-972.9647"/>
</g>
<!-- src/shared/pages/Page&#45;1/Page&#45;1.css.d.ts -->
<g id="node34" class="node">
<title>src/shared/pages/Page&#45;1/Page&#45;1.css.d.ts</title>
<g id="a_node34"><a xlink:href="src/shared/pages/Page-1/Page-1.css.d.ts" xlink:title="Page&#45;1.css.d.ts">
<path fill="#ccffcc" stroke="#000000" d="M539.5,-637.8581C539.5,-637.8581 472.5,-637.8581 472.5,-637.8581 469.5,-637.8581 466.5,-634.8581 466.5,-631.8581 466.5,-631.8581 466.5,-625.8581 466.5,-625.8581 466.5,-622.8581 469.5,-619.8581 472.5,-619.8581 472.5,-619.8581 539.5,-619.8581 539.5,-619.8581 542.5,-619.8581 545.5,-622.8581 545.5,-625.8581 545.5,-625.8581 545.5,-631.8581 545.5,-631.8581 545.5,-634.8581 542.5,-637.8581 539.5,-637.8581"/>
<text text-anchor="middle" x="506" y="-626.6581" font-family="Helvetica,sans-Serif" font-size="9.00" fill="#000000">Page&#45;1.css.d.ts</text>
</a>
</g>
</g>
<!-- src/shared/pages/Page&#45;1/Page&#45;1.module.css.d.ts -->
<g id="node36" class="node">
<title>src/shared/pages/Page&#45;1/Page&#45;1.module.css.d.ts</title>
<g id="a_node36"><a xlink:href="src/shared/pages/Page-1/Page-1.module.css.d.ts" xlink:title="Page&#45;1.module.css.d.ts">
<path fill="#ccffcc" stroke="#000000" d="M556,-607.8581C556,-607.8581 456,-607.8581 456,-607.8581 453,-607.8581 450,-604.8581 450,-601.8581 450,-601.8581 450,-595.8581 450,-595.8581 450,-592.8581 453,-589.8581 456,-589.8581 456,-589.8581 556,-589.8581 556,-589.8581 559,-589.8581 562,-592.8581 562,-595.8581 562,-595.8581 562,-601.8581 562,-601.8581 562,-604.8581 559,-607.8581 556,-607.8581"/>
<text text-anchor="middle" x="506" y="-596.6581" font-family="Helvetica,sans-Serif" font-size="9.00" fill="#000000">Page&#45;1.module.css.d.ts</text>
</a>
</g>
</g>
<!-- src/shared/routes.test.ts -->
<g id="node37" class="node">
<title>src/shared/routes.test.ts</title>
<g id="a_node37"><a xlink:href="src/shared/routes.test.ts" xlink:title="routes.test.ts">
<path fill="#ddfeff" stroke="#000000" d="M414.5,-385.8581C414.5,-385.8581 358.5,-385.8581 358.5,-385.8581 355.5,-385.8581 352.5,-382.8581 352.5,-379.8581 352.5,-379.8581 352.5,-373.8581 352.5,-373.8581 352.5,-370.8581 355.5,-367.8581 358.5,-367.8581 358.5,-367.8581 414.5,-367.8581 414.5,-367.8581 417.5,-367.8581 420.5,-370.8581 420.5,-373.8581 420.5,-373.8581 420.5,-379.8581 420.5,-379.8581 420.5,-382.8581 417.5,-385.8581 414.5,-385.8581"/>
<text text-anchor="middle" x="386.5" y="-374.6581" font-family="Helvetica,sans-Serif" font-size="9.00" fill="#000000">routes.test.ts</text>
</a>
</g>
</g>
<!-- src/shared/routes.test.ts&#45;&gt;src/shared/routes.ts -->
<g id="edge40" class="edge">
<title>src/shared/routes.test.ts&#45;&gt;src/shared/routes.ts</title>
<path fill="none" stroke="#000000" stroke-width="2" stroke-opacity="0.200000" d="M420.7439,-376.8581C437.0615,-376.8581 456.5035,-376.8581 472.698,-376.8581"/>
<polygon fill="#000000" fill-opacity="0.200000" stroke="#000000" stroke-width="2" stroke-opacity="0.200000" points="472.9606,-378.9582 478.9606,-376.8581 472.9606,-374.7582 472.9606,-378.9582"/>
</g>
<!-- src/shared/store/app/reducer.test.ts -->
<g id="node38" class="node">
<title>src/shared/store/app/reducer.test.ts</title>
<g id="a_node38"><a xlink:href="src/shared/store/app/reducer.test.ts" xlink:title="reducer.test.ts">
<path fill="#ddfeff" stroke="#000000" d="M417.5,-978.8581C417.5,-978.8581 355.5,-978.8581 355.5,-978.8581 352.5,-978.8581 349.5,-975.8581 349.5,-972.8581 349.5,-972.8581 349.5,-966.8581 349.5,-966.8581 349.5,-963.8581 352.5,-960.8581 355.5,-960.8581 355.5,-960.8581 417.5,-960.8581 417.5,-960.8581 420.5,-960.8581 423.5,-963.8581 423.5,-966.8581 423.5,-966.8581 423.5,-972.8581 423.5,-972.8581 423.5,-975.8581 420.5,-978.8581 417.5,-978.8581"/>
<text text-anchor="middle" x="386.5" y="-967.6581" font-family="Helvetica,sans-Serif" font-size="9.00" fill="#000000">reducer.test.ts</text>
</a>
</g>
</g>
<!-- src/shared/store/app/reducer.test.ts&#45;&gt;src/shared/store/app/actions.ts -->
<g id="edge42" class="edge">
<title>src/shared/store/app/reducer.test.ts&#45;&gt;src/shared/store/app/actions.ts</title>
<path fill="none" stroke="#000000" stroke-width="2" stroke-opacity="0.200000" d="M423.5367,-968.8552C473.639,-967.4985 562.3148,-965.0972 610.871,-963.7823"/>
<polygon fill="#000000" fill-opacity="0.200000" stroke="#000000" stroke-width="2" stroke-opacity="0.200000" points="611.2205,-965.8737 617.1615,-963.612 611.1068,-961.6752 611.2205,-965.8737"/>
</g>
<!-- src/shared/store/app/reducer.ts -->
<g id="node39" class="node">
<title>src/shared/store/app/reducer.ts</title>
<g id="a_node39"><a xlink:href="src/shared/store/app/reducer.ts" xlink:title="reducer.ts">
<path fill="#ddfeff" stroke="#000000" d="M528.5,-993.8581C528.5,-993.8581 483.5,-993.8581 483.5,-993.8581 480.5,-993.8581 477.5,-990.8581 477.5,-987.8581 477.5,-987.8581 477.5,-981.8581 477.5,-981.8581 477.5,-978.8581 480.5,-975.8581 483.5,-975.8581 483.5,-975.8581 528.5,-975.8581 528.5,-975.8581 531.5,-975.8581 534.5,-978.8581 534.5,-981.8581 534.5,-981.8581 534.5,-987.8581 534.5,-987.8581 534.5,-990.8581 531.5,-993.8581 528.5,-993.8581"/>
<text text-anchor="middle" x="506" y="-982.6581" font-family="Helvetica,sans-Serif" font-size="9.00" fill="#000000">reducer.ts</text>
</a>
</g>
</g>
<!-- src/shared/store/app/reducer.test.ts&#45;&gt;src/shared/store/app/reducer.ts -->
<g id="edge43" class="edge">
<title>src/shared/store/app/reducer.test.ts&#45;&gt;src/shared/store/app/reducer.ts</title>
<path fill="none" stroke="#000000" stroke-width="2" stroke-opacity="0.200000" d="M423.6555,-974.522C438.763,-976.4183 456.1305,-978.5984 471.0095,-980.466"/>
<polygon fill="#000000" fill-opacity="0.200000" stroke="#000000" stroke-width="2" stroke-opacity="0.200000" points="471.0051,-982.5819 477.2199,-981.2456 471.5282,-978.4146 471.0051,-982.5819"/>
</g>
<!-- src/shared/store/app/reducer.ts&#45;&gt;src/shared/store/app/actions.ts -->
<g id="edge44" class="edge">
<title>src/shared/store/app/reducer.ts&#45;&gt;src/shared/store/app/actions.ts</title>
<path fill="none" stroke="#000000" stroke-width="2" stroke-opacity="0.200000" d="M534.8009,-980.2997C556.9918,-976.7875 587.7298,-971.9225 611.1056,-968.2227"/>
<polygon fill="#000000" fill-opacity="0.200000" stroke="#000000" stroke-width="2" stroke-opacity="0.200000" points="611.5866,-970.2728 617.1845,-967.2606 610.93,-966.1244 611.5866,-970.2728"/>
</g>
<!-- src/shared/store/app/reducer.ts&#45;&gt;src/shared/store/app/types.ts -->
<g id="edge45" class="edge">
<title>src/shared/store/app/reducer.ts&#45;&gt;src/shared/store/app/types.ts</title>
<path fill="none" stroke="#000000" stroke-width="2" stroke-opacity="0.200000" d="M534.5179,-984.1701C573.7305,-983.1561 646.4933,-981.0309 708.5,-977.8581 716.8339,-977.4317 725.8234,-976.8728 734.2121,-976.3086"/>
<polygon fill="#000000" fill-opacity="0.200000" stroke="#000000" stroke-width="2" stroke-opacity="0.200000" points="734.6469,-978.3838 740.4891,-975.8782 734.3595,-974.1936 734.6469,-978.3838"/>
</g>
<!-- src/shared/store/app/selectors.test.ts -->
<g id="node40" class="node">
<title>src/shared/store/app/selectors.test.ts</title>
<g id="a_node40"><a xlink:href="src/shared/store/app/selectors.test.ts" xlink:title="selectors.test.ts">
<path fill="#ddfeff" stroke="#000000" d="M420,-1011.8581C420,-1011.8581 353,-1011.8581 353,-1011.8581 350,-1011.8581 347,-1008.8581 347,-1005.8581 347,-1005.8581 347,-999.8581 347,-999.8581 347,-996.8581 350,-993.8581 353,-993.8581 353,-993.8581 420,-993.8581 420,-993.8581 423,-993.8581 426,-996.8581 426,-999.8581 426,-999.8581 426,-1005.8581 426,-1005.8581 426,-1008.8581 423,-1011.8581 420,-1011.8581"/>
<text text-anchor="middle" x="386.5" y="-1000.6581" font-family="Helvetica,sans-Serif" font-size="9.00" fill="#000000">selectors.test.ts</text>
</a>
</g>
</g>
<!-- src/shared/store/app/selectors.test.ts&#45;&gt;src/shared/store/app/selectors.ts -->
<g id="edge47" class="edge">
<title>src/shared/store/app/selectors.test.ts&#45;&gt;src/shared/store/app/selectors.ts</title>
<path fill="none" stroke="#000000" stroke-width="2" stroke-opacity="0.200000" d="M426.042,-1003.47C475.4468,-1004.2345 559.3577,-1005.5329 607.6938,-1006.2808"/>
<polygon fill="#000000" fill-opacity="0.200000" stroke="#000000" stroke-width="2" stroke-opacity="0.200000" points="607.9511,-1008.385 613.9829,-1006.3782 608.0162,-1004.1855 607.9511,-1008.385"/>
</g>
<!-- src/shared/store/app/selectors.test.ts&#45;&gt;src/shared/store/app/reducer.ts -->
<g id="edge46" class="edge">
<title>src/shared/store/app/selectors.test.ts&#45;&gt;src/shared/store/app/reducer.ts</title>
<path fill="none" stroke="#000000" stroke-width="2" stroke-opacity="0.200000" d="M426.2918,-996.8644C440.7758,-994.6827 457.0277,-992.2347 471.0598,-990.1211"/>
<polygon fill="#000000" fill-opacity="0.200000" stroke="#000000" stroke-width="2" stroke-opacity="0.200000" points="471.7161,-992.146 477.3364,-989.1756 471.0905,-987.9928 471.7161,-992.146"/>
</g>
<!-- src/shared/store/rootReducer.ts&#45;&gt;src/shared/store/app/reducer.ts -->
<g id="edge50" class="edge">
<title>src/shared/store/rootReducer.ts&#45;&gt;src/shared/store/app/reducer.ts</title>
<path fill="none" stroke="#000000" stroke-width="2" stroke-opacity="0.200000" d="M413.8968,-937.9951C417.9911,-939.5254 422.1333,-941.1682 426,-942.8581 446.4826,-951.81 468.9502,-963.8096 484.8465,-972.6902"/>
<polygon fill="#000000" fill-opacity="0.200000" stroke="#000000" stroke-width="2" stroke-opacity="0.200000" points="484.1309,-974.6972 490.3898,-975.8094 486.1906,-971.0369 484.1309,-974.6972"/>
</g>
<!-- src/shared/test.css.d.ts -->
<g id="node42" class="node">
<title>src/shared/test.css.d.ts</title>
<g id="a_node42"><a xlink:href="src/shared/test.css.d.ts" xlink:title="test.css.d.ts">
<path fill="#ccffcc" stroke="#000000" d="M304,-758.8581C304,-758.8581 253,-758.8581 253,-758.8581 250,-758.8581 247,-755.8581 247,-752.8581 247,-752.8581 247,-746.8581 247,-746.8581 247,-743.8581 250,-740.8581 253,-740.8581 253,-740.8581 304,-740.8581 304,-740.8581 307,-740.8581 310,-743.8581 310,-746.8581 310,-746.8581 310,-752.8581 310,-752.8581 310,-755.8581 307,-758.8581 304,-758.8581"/>
<text text-anchor="middle" x="278.5" y="-747.6581" font-family="Helvetica,sans-Serif" font-size="9.00" fill="#000000">test.css.d.ts</text>
</a>
</g>
</g>
<!-- src/shared/variables.css.d.ts -->
<g id="node43" class="node">
<title>src/shared/variables.css.d.ts</title>
<g id="a_node43"><a xlink:href="src/shared/variables.css.d.ts" xlink:title="variables.css.d.ts">
<path fill="#ccffcc" stroke="#000000" d="M315.5,-614.8581C315.5,-614.8581 241.5,-614.8581 241.5,-614.8581 238.5,-614.8581 235.5,-611.8581 235.5,-608.8581 235.5,-608.8581 235.5,-602.8581 235.5,-602.8581 235.5,-599.8581 238.5,-596.8581 241.5,-596.8581 241.5,-596.8581 315.5,-596.8581 315.5,-596.8581 318.5,-596.8581 321.5,-599.8581 321.5,-602.8581 321.5,-602.8581 321.5,-608.8581 321.5,-608.8581 321.5,-611.8581 318.5,-614.8581 315.5,-614.8581"/>
<text text-anchor="middle" x="278.5" y="-603.6581" font-family="Helvetica,sans-Serif" font-size="9.00" fill="#000000">variables.css.d.ts</text>
</a>
</g>
</g>
</g>
</svg>
